<svg viewBox="0 0 72 72" xmlns="http://www.w3.org/2000/svg"><path d="m67.08 71.02c-.66.66-1.45.98-2.39.98s-1.73-.33-2.39-.98l-14.06-14.06c-.66-.66-.98-1.45-.98-2.39v-2.25c-5.25 4.12-11.25 6.19-18 6.19-5.34 0-10.24-1.31-14.7-3.94s-7.99-6.16-10.62-10.62-3.94-9.36-3.94-14.7 1.31-10.24 3.94-14.7 6.16-7.99 10.61-10.61 9.36-3.94 14.7-3.94 10.24 1.31 14.7 3.94 7.99 6.16 10.62 10.62 3.94 9.35 3.94 14.7c0 6.75-2.06 12.75-6.19 18h2.25c.94 0 1.73.33 2.39.98l14.06 14.06c.66.66.98 1.45.98 2.39s-.33 1.73-.98 2.39zm-21.3-51.33c-1.73-2.91-4.05-5.23-6.96-6.96s-6.09-2.6-9.56-2.6-6.66.87-9.56 2.6-5.23 4.05-6.96 6.96-2.6 6.09-2.6 9.56.87 6.66 2.6 9.56 4.05 5.23 6.96 6.96 6.09 2.6 9.56 2.6 6.66-.87 9.56-2.6 5.23-4.05 6.96-6.96 2.6-6.09 2.6-9.56-.87-6.66-2.6-9.56zm-3.02 11.81c0 .47-.16.87-.49 1.2s-.73.49-1.2.49h-7.88v7.88c0 .47-.16.87-.49 1.2s-.73.49-1.2.49h-4.5c-.47 0-.87-.16-1.2-.49s-.49-.73-.49-1.2v-7.88h-7.88c-.47 0-.87-.16-1.2-.49s-.49-.73-.49-1.2v-4.5c0-.47.16-.87.49-1.2s.73-.49 1.2-.49h7.88v-7.88c0-.47.16-.87.49-1.2s.73-.49 1.2-.49h4.5c.47 0 .87.16 1.2.49s.49.73.49 1.2v7.88h7.88c.47 0 .87.16 1.2.49s.49.73.49 1.2z"/></svg>