<svg class="image -svg" enable-background="new 0 0 37.5 24" viewBox="0 0 37.5 24" xmlns="http://www.w3.org/2000/svg"><path d="m20.5 0-19.1 12c-1 .6-1.4 1.2-1.4 1.9v1.8c0 .7.5 1.3 1.4 1.8l9.5 5.5c.1 0 .1.1.2.1h.2c.1 0 .1-.1.2-.1 0 0 .1-.1.1-.2l2.1-5.1-4.5-2.6c-.2-.1-.4-.2-.4-.3-.1-.1-.1-.2-.1-.3s0-.2 0-.3.1-.2.1-.3.1-.2.2-.2l8.3-5.1 3.4-8.3v-.1s0-.1-.1-.1h-.1z"/><path d="m36.2 6.7-9.3-5.7c-.1 0-.2 0-.2 0-.1 0-.1 0-.2 0s-.1.1-.2.1c0 0-.1.1-.1.2l-2.2 5.1 4.4 2.7c.1.1.2.2.3.3s.1.3.1.4 0 .3-.1.4-.2.2-.3.3l-8.3 4.9-3.5 8.3s-.1.1 0 .1c0 .1 0 .1.1.1h.1.1.1.1l6.1-3.7 2.4 3.5.2.2c.1 0 .2.1.3.1h5.8c.1 0 .2 0 .3-.1s.2-.1.2-.2.1-.2.1-.3 0-.2-.1-.3l-3.9-6 8-4.8c.9-.5 1.4-1.2 1.4-1.8v-1.9c-.4-.7-.8-1.3-1.7-1.9z"/></svg>
