<svg class="image -svg" width="72" height="72" xmlns="http://www.w3.org/2000/svg"><path d="M50.6 0H21.4C9.6 0 0 9.6 0 21.4v29.1C0 62.4 9.6 72 21.4 72h29.1C62.4 72 72 62.4 72 50.6V21.4C72 9.6 62.4 0 50.6 0zm14.2 50.6c0 7.8-6.4 14.2-14.2 14.2H21.4c-7.8 0-14.2-6.4-14.2-14.2V21.4c0-7.8 6.4-14.2 14.2-14.2h29.1c7.8 0 14.2 6.4 14.2 14.2z"/><path d="M36 17.4c-10.3 0-18.6 8.4-18.6 18.6S25.7 54.6 36 54.6 54.6 46.3 54.6 36 46.3 17.4 36 17.4zm0 30c-6.3 0-11.4-5.1-11.4-11.4S29.7 24.6 36 24.6 47.4 29.7 47.4 36 42.3 47.4 36 47.4z"/><circle cx="54.7" cy="17.5" r="4.5"/></svg>