<svg class="image -svg" width="72" height="72" xmlns="http://www.w3.org/2000/svg"><path d="M57 33.8c-2.1 0-4.1 0-6 .1s-3.8.2-5.5.4c-.4-1.2-.9-2.3-1.3-3.2-.4-1-.8-1.9-1.1-2.7 3.7-1.6 6.9-3.4 9.5-5.4s4.7-4.1 6.2-6.4c2.2 2.5 3.9 5.2 5.1 8.1s1.9 6 2 9.2c-1.5-.1-2.9-.1-4.4-.1H57zm4.5 18c-1.2 1.9-2.5 3.7-4.1 5.2-1.5 1.6-3.3 3-5.2 4.2-.4-3.8-1.1-7.5-1.9-11.1-.8-3.7-1.8-7.3-3.1-10.8 1.7-.1 3.3-.2 4.8-.3s2.9-.1 4.3-.1 2.9 0 4.5.1 3.3.1 5 .3c-.2 2.2-.7 4.4-1.4 6.5-.8 2.1-1.8 4.1-2.9 6zM36 66c-3.4 0-6.7-.5-9.7-1.6s-5.9-2.6-8.7-4.7c1.1-2.1 2.5-4.2 4.2-6.3s3.6-4 5.9-5.9c2.2-2 4.4-3.6 6.7-4.8 2.2-1.2 4.5-2.1 6.7-2.6 1.4 3.9 2.6 7.8 3.5 11.8s1.6 8 2.1 12.1c-1.7.7-3.5 1.2-5.2 1.5-1.9.3-3.7.5-5.5.5zM6 36v-.3c0-.1 0-.3.1-.4v-.6h4.2c2.4 0 4.7-.1 7-.3 2.4-.2 4.7-.4 6.9-.8 2.2-.3 4.4-.8 6.5-1.3 2.1-.4 4.2-1 6.3-1.7.3.7.7 1.4 1 2.1.3.8.7 1.6 1.1 2.4-2.4.5-4.8 1.4-7.3 2.7-2.4 1.3-4.9 3-7.4 5s-4.6 4.1-6.4 6.3-3.3 4.4-4.4 6.6c-2.5-2.9-4.4-5.9-5.7-9.2C6.6 43.3 6 39.8 6 36zm6.6-18.7c1.3-1.7 2.8-3.2 4.5-4.5 1.6-1.3 3.4-2.5 5.3-3.5 2.2 2.2 4.3 4.6 6.3 7.3s3.9 5.6 5.7 8.9c-3.6 1.1-7.3 2-11.1 2.5s-7.7.8-11.7.8H8.9c-.8 0-1.4-.1-2-.1.6-2.1 1.3-4.1 2.3-5.9.9-2 2.1-3.8 3.4-5.5zM36 6c3.6 0 7 .6 10.2 1.7 3.2 1.2 6.2 2.9 9 5.2-1.7 2.1-3.7 4.1-6.2 5.8s-5.3 3.3-8.6 4.7c-1.8-3.3-3.7-6.3-5.6-9-2-2.7-4-5.2-6.1-7.4 1.2-.3 2.5-.6 3.7-.8 1.1-.1 2.4-.2 3.6-.2zm31.1 12c-1.6-2.8-3.5-5.2-5.6-7.4-2.2-2.2-4.7-4.1-7.4-5.6-2.8-1.6-5.6-2.9-8.6-3.7C42.4.4 39.3 0 36 0s-6.4.4-9.4 1.2-5.9 2-8.6 3.7c-2.8 1.6-5.2 3.5-7.4 5.6-2.2 2.2-4.1 4.7-5.6 7.4-1.6 2.8-2.9 5.6-3.7 8.6C.4 29.6 0 32.7 0 36s.4 6.4 1.2 9.4 2 5.9 3.7 8.6c1.6 2.8 3.5 5.2 5.6 7.4 2.2 2.2 4.7 4.1 7.4 5.6 2.8 1.6 5.6 2.9 8.6 3.7s6.1 1.2 9.4 1.2 6.4-.4 9.4-1.2 5.9-2 8.6-3.7c2.8-1.6 5.2-3.5 7.4-5.6 2.2-2.2 4.1-4.7 5.7-7.4 1.6-2.8 2.8-5.6 3.6-8.6s1.2-6.1 1.2-9.4-.4-6.4-1.2-9.4c-.6-3-1.9-5.9-3.5-8.6z"/></svg>