<svg class="image -svg" width="72" height="72" xmlns="http://www.w3.org/2000/svg"><path d="M64.6 21.3v2c0 4.9-.9 9.8-2.7 14.8s-4.5 9.5-8.1 13.5c-3.5 4-7.9 7.3-13.1 9.8-5.2 2.6-11.2 3.9-18 3.9-4.2 0-8.2-.6-12-1.8-3.9-1.2-7.4-2.8-10.7-4.9.6.1 1.2.2 1.8.2h1.8c3.4 0 6.7-.5 9.8-1.6s5.9-2.6 8.5-4.6c-3.2-.1-6.1-1-8.6-3-2.5-1.9-4.3-4.3-5.2-7.3.5.1.9.1 1.4.2s1 .1 1.4.1c.7 0 1.3-.1 2-.2.6-.1 1.3-.2 1.9-.3-3.4-.7-6.2-2.4-8.5-5.1s-3.4-5.8-3.4-9.4v-.2c1 .5 2.1.9 3.2 1.3 1.1.3 2.3.5 3.5.6-2-1.3-3.6-3.1-4.8-5.2-1.2-2.2-1.8-4.5-1.8-7 0-1.4.2-2.7.6-3.9.4-1.3.9-2.4 1.5-3.5 1.8 2.2 3.9 4.3 6.1 6.1s4.6 3.4 7.2 4.7 5.3 2.4 8.2 3.2 5.8 1.3 8.8 1.5c-.1-.6-.2-1.1-.3-1.7s-.1-1.1-.1-1.7c0-4.1 1.4-7.5 4.3-10.4s6.4-4.3 10.5-4.3c2.1 0 4.1.4 6 1.3s3.4 2 4.8 3.4c1.7-.3 3.4-.8 4.9-1.4 1.6-.6 3-1.3 4.4-2.2-.5 1.7-1.3 3.3-2.4 4.7s-2.4 2.6-4 3.5c1.5-.2 2.9-.5 4.4-.9 1.4-.4 2.8-.9 4.1-1.5-1 1.5-2.2 2.9-3.4 4.2-1.2.9-2.5 2.1-4 3.1z"/></svg>