<svg class="c-media__svg" width="10.5" height="10.5" fill="currentColor" viewBox="0 0 10.5 10.5" xmlns="http://www.w3.org/2000/svg"><path d="m10.5 9.38c0 .31-.11.58-.33.8s-.48.33-.8.33h-8.25c-.31 0-.58-.11-.8-.33s-.33-.48-.33-.8v-8.26c0-.31.11-.58.33-.8s.48-.33.8-.33h8.25c.31 0 .58.11.8.33s.33.48.33.8v8.25zm-1.01-4.9c-.03-.58-.09-1.01-.16-1.29-.05-.19-.14-.35-.27-.48s-.29-.22-.48-.27c-.27-.08-.91-.13-1.92-.16l-1.41-.02-1.41.02c-1.02.03-1.66.09-1.92.16-.19.05-.35.14-.48.27s-.22.29-.27.48c-.12.45-.19 1.14-.19 2.06l.02.8c.03.58.09 1 .16 1.27.05.19.14.35.27.48s.29.22.48.27c.27.08.91.13 1.92.16l1.41.02 1.41-.02c1.02-.03 1.66-.09 1.92-.16.19-.05.35-.14.48-.27s.22-.29.27-.48c.12-.44.19-1.12.19-2.06 0-.25 0-.51-.02-.77zm-2.88.77-2.23 1.27v-2.53l2.23 1.27z" /></svg>
