<svg class="c-media__svg" width="10.5" height="10.5" fill="currentColor" viewBox="0 0 10.5 10.5" xmlns="http://www.w3.org/2000/svg"><path d="m10.5 9.38c0 .31-.11.58-.33.8s-.48.33-.8.33h-8.25c-.31 0-.58-.11-.8-.33s-.33-.48-.33-.8v-8.26c0-.31.11-.58.33-.8s.48-.33.8-.33h8.25c.31 0 .58.11.8.33s.33.48.33.8v8.25zm-2.93-4.71c-.61-.42-1.34-.64-2.18-.66l.45-1.99 1.38.33c0 .17.06.32.19.43s.27.18.45.18.32-.06.45-.18.19-.26.19-.43-.06-.32-.19-.45-.27-.19-.45-.19c-.12 0-.23.03-.33.09s-.17.15-.23.26l-1.55-.35s-.06-.01-.09.01-.05.06-.07.11l-.47 2.18c-.84.03-1.56.26-2.16.68-.17-.17-.38-.26-.61-.26-.28 0-.5.1-.66.3s-.21.43-.16.69.2.45.45.57c-.03.12-.05.26-.05.4 0 .44.15.84.46 1.21s.71.66 1.22.87 1.06.32 1.66.32 1.16-.11 1.66-.32.91-.5 1.21-.87.45-.77.45-1.21c.02-.16 0-.29-.05-.4.25-.12.4-.32.45-.57s0-.49-.16-.69-.38-.3-.66-.3c-.22 0-.41.08-.59.23zm-3.26.98c-.12-.12-.27-.19-.45-.19s-.32.06-.43.19-.18.27-.18.45.06.32.18.43.26.18.43.18.32-.06.45-.18.19-.26.19-.43-.06-.32-.19-.45zm2.37 1.82s-.02.07-.05.11c-.19.19-.46.31-.83.38s-.73.06-1.1 0-.64-.19-.83-.38c-.03-.03-.05-.07-.05-.11s.02-.07.05-.11.07-.05.11-.05.07.02.11.05c.14.14.37.24.69.29s.64.05.96 0 .55-.16.69-.32c.03-.02.07-.02.11-.02s.07 0 .11.02c.03.05.05.09.05.13zm-.49-1.82c-.12.12-.19.27-.19.45s.06.32.19.43.27.18.45.18.32-.06.43-.18.18-.26.18-.43-.06-.32-.18-.45-.26-.19-.43-.19-.32.06-.45.19z" /></svg>
