<svg class="image -svg" height="415.49" width="415.49" xmlns="http://www.w3.org/2000/svg"><path d="M411.188 392.062L286.875 267.75l-1.912 1.912c24.862-28.688 40.162-66.937 40.162-107.1C325.125 72.675 252.45 0 162.562 0S0 72.675 0 162.562s72.675 162.562 162.562 162.562c42.075 0 78.412-15.3 107.1-40.162l-1.912 1.912 124.312 124.312c5.737 5.737 13.388 5.737 19.125 0s5.738-13.386.001-19.124zM162.562 306C84.15 306 19.125 240.975 19.125 162.562S84.15 19.124 162.563 19.124C240.975 19.125 306 84.15 306 162.562 306 240.975 240.975 306 162.562 306z"/><path d="M172.125 76.5H153V153H76.5v19.125H153v76.5h19.125v-76.5h76.5V153h-76.5z"/></svg>