<svg viewBox="0 0 72 72" xmlns="http://www.w3.org/2000/svg"><path d="M29.2 50.8c2.1-2.1 3.2-4.7 3.2-7.6s-1.1-5.5-3.2-7.6-4.7-3.2-7.6-3.2c-3 0-5.5 1.1-7.6 3.2s-3.2 4.7-3.2 7.6 1.1 5.5 3.2 7.6 4.7 3.2 7.6 3.2c3 0 5.5-1.1 7.6-3.2zM18 43.2c0-1 .4-1.9 1.1-2.6s1.5-1.1 2.5-1.1 1.9.4 2.6 1.1 1.1 1.6 1.1 2.6-.4 1.8-1.1 2.5-1.6 1.1-2.6 1.1-1.8-.4-2.5-1.1-1.1-1.5-1.1-2.5z"/><path d="M69.9 2.1C68.5.7 66.8 0 64.7 0H21.6c-2 0-3.7.7-5.1 2.1s-2.1 3.1-2.1 5.1v14.4H7.3c-2 0-3.7.7-5.1 2.1C.7 25.1 0 26.8 0 28.8v36c0 2 .7 3.7 2.1 5.1S5.2 72 7.3 72h43.2c2 0 3.7-.7 5.1-2.1s2.1-3.1 2.1-5.1V50.4h7.2c2 0 3.7-.7 5.1-2.1s2.1-3.1 2.1-5.1v-36c-.1-2-.8-3.6-2.2-5.1zM21.6 7.2h43.2v17.2c-.4-.2-.7-.5-1.1-.7-1.4-.6-2.9-1-4.4-1-.7 0-1.3.1-2 .2-.6.1-1.3.3-1.9.5l.1.1c-1.4-1.4-3-2-5-2h-3.6c0-3-1.1-5.5-3.2-7.6s-4.7-3.2-7.6-3.2c-3 0-5.5 1.1-7.6 3.2s-3.2 4.7-3.2 7.6h-3.6V7.2zM57 25.9c0-.1-.1-.2-.1-.3 0 .2.1.2.1.3zm-.7-1.1c-.2-.2-.4-.4-.5-.7.2.2.4.4.5.7zm-16.7-3.2h-7.3c0-1 .4-1.9 1.1-2.6.7-.6 1.6-1 2.6-1s1.9.4 2.6 1.1 1 1.5 1 2.5zM7.3 28.8h43.2v17.3c-.4-.2-.8-.5-1.2-.7-1.3-.6-2.8-.9-4.4-.9-2 0-3.8.5-5.5 1.4-1.6 1-2.9 2.2-3.9 3.9l-8.7 15H7.3zm27.8 36l6.6-11.4c.3-.6.7-1 1.3-1.3s1.2-.5 1.9-.5c.5 0 1 .1 1.4.3s.8.5 1.2.9l3 3.2v8.8zm22.5-21.6V30.5c.2-.2.5-.3.8-.3.3-.1.6-.1.8-.1.6 0 1.1.1 1.5.3s.8.5 1.2.9l2.9 3.1v8.9h-7.2z"/></svg>