<svg viewBox="0 0 72 72" xmlns="http://www.w3.org/2000/svg"><path d="M36 25.2c1 0 1.9-.4 2.6-1.1s1.1-1.5 1.1-2.5-.4-1.9-1.1-2.6-1.6-1-2.6-1-1.9.4-2.6 1.1-1.1 1.6-1.1 2.6.4 1.8 1.1 2.5 1.6 1 2.6 1zm0 7.2c-4 0-7.4 1.4-10.2 4.2s-4.2 6.2-4.2 10.1c0 4 1.4 7.4 4.2 10.2S32 61.1 36 61.1s7.4-1.4 10.2-4.2 4.2-6.2 4.2-10.2c0-3.9-1.4-7.3-4.2-10.1S40 32.4 36 32.4zm5.1 19.5C39.7 53.3 38 54 36 54s-3.7-.7-5.1-2.1-2.1-3.1-2.1-5.1.7-3.7 2.1-5.1 3.1-2.1 5.1-2.1 3.7.7 5.1 2.1 2.1 3.1 2.1 5.1-.7 3.7-2.1 5.1z"/><path d="M58.1 3.2C56 1.1 53.4 0 50.4 0H21.6c-3 0-5.5 1.1-7.6 3.2s-3.2 4.7-3.2 7.6v50.4c0 3 1.1 5.5 3.2 7.6s4.7 3.2 7.6 3.2h28.9c3 0 5.5-1.1 7.6-3.2s3.2-4.7 3.2-7.6V10.8c-.1-3-1.1-5.5-3.2-7.6zm-4.1 58c0 1-.4 1.9-1.1 2.6s-1.5 1.1-2.5 1.1H21.6c-1 0-1.8-.4-2.5-1.1S18 62.2 18 61.2V10.8c0-1 .4-1.9 1.1-2.6s1.5-1.1 2.5-1.1h28.9c1 0 1.8.4 2.5 1.1s1 1.6 1 2.6z"/></svg>