<svg class="svg-icon" viewBox="0 0 72 72" xmlns="http://www.w3.org/2000/svg"><path d="M64.8 10.9H7.2c-4 0-7.2 3.2-7.2 7.2V54c0 4 3.2 7.2 7.2 7.2h57.7c4 0 7.2-3.2 7.2-7.2V18.1c-.1-4-3.3-7.2-7.3-7.2zm0 43H7.2V18.1h57.7v35.8z"/><path d="M40.4 25.2h17.3v7.2H40.4zm0 14.4h17.3v7.2H40.4zm-13.1-2c-.3-.1-.5-.4-.5-.8 0-.2.1-.4.2-.5 1.1-1.1 2.1-2.9 2.1-5.2 0-3-1.7-5.9-5.2-5.9s-5.2 2.9-5.2 5.9c0 2.3 1 4.1 2.1 5.2.1.2.2.3.2.5 0 .4-.2.7-.5.8-2.8.8-6.2 2.7-7.1 4.8-.2.4-.2.8-.2 1.2 0 1.5 1.1 2.8 2.5 3h16.7c1.4-.2 2.5-1.5 2.5-3 0-.4-.1-.8-.2-1.2-1.2-2-4.6-3.9-7.4-4.8z"/></svg>