<svg class="image -svg" width="72" height="72" viewBox="0 0 72 72" xmlns="http://www.w3.org/2000/svg"><path d="M47.3 61.2H25.7c-1 0-1.9.4-2.6 1.1S22 63.9 22 64.9s.4 1.8 1.1 2.5 1.6 1.1 2.6 1.1h21.6c1 0 1.9-.4 2.6-1.1s1.1-1.5 1.1-2.5-.4-1.9-1.1-2.6-1.6-1.1-2.6-1.1zm22-54.4c-2.1-2.1-4.7-3.2-7.6-3.2H11.3c-3 0-5.5 1.1-7.6 3.2S.5 11.5.5 14.4v32.4c0 3 1.1 5.5 3.2 7.6s4.7 3.2 7.6 3.2h50.4c3 0 5.5-1.1 7.6-3.2s3.2-4.7 3.2-7.6V14.4c0-3-1.1-5.5-3.2-7.6zm-4.1 40c0 1-.4 1.9-1.1 2.6s-1.5 1.1-2.5 1.1H11.3c-1 0-1.8-.4-2.5-1.1s-1.1-1.6-1.1-2.6V14.4c0-1 .4-1.8 1.1-2.5s1.5-1.1 2.5-1.1h50.4c1 0 1.8.4 2.5 1.1s1.1 1.5 1.1 2.5v32.4z"/></svg>
