<svg class="image -svg" width="72" height="72" viewBox="0 0 72 72" xmlns="http://www.w3.org/2000/svg"><path d="M69.1 22c-1.9-4.3-4.4-8.1-7.7-11.4-3.2-3.3-7-5.9-11.4-7.8C45.6 1 40.9 0 36 0s-9.6 1-14 2.8c-4.4 1.9-8.2 4.5-11.5 7.8s-5.8 7-7.6 11.4C1 26.3 0 31 0 36s1 9.7 2.9 14c1.9 4.4 4.4 8.2 7.7 11.5s7.1 5.8 11.5 7.7 9 2.9 14 2.9 9.6-1 14-2.9 8.2-4.4 11.5-7.7 5.8-7.1 7.7-11.5C71 45.6 72 41 72 36s-1-9.7-2.9-14zM48.6 10.1c2.5 1.3 4.8 2.9 7 4.8 2.1 1.9 3.9 4.2 5.4 6.7h-8.4c-.5-2.2-1.1-4.3-1.8-6.2s-1.4-3.7-2.3-5.4h.1zm-20.4 7.4c.4-1.3 1-2.5 1.5-3.7 1.2-2.2 2.3-3.9 3.5-5s2.1-1.6 2.9-1.6 1.7.5 2.9 1.6 2.3 2.7 3.5 5l-.2-.3c.6 1.2 1.2 2.5 1.6 3.8.5 1.3.9 2.7 1.3 4.3H26.9c.4-1.4.8-2.8 1.3-4.1zM8.1 43.2c-.3-1.2-.5-2.4-.6-3.6s-.2-2.4-.2-3.7.1-2.5.2-3.8c.1-1.2.4-2.3.6-3.4h10.3c-.1 1.1-.2 2.3-.2 3.4-.1 1.4-.2 2.6-.2 3.9s0 2.5.1 3.8c.1 1.2.1 2.4.3 3.5H8.1zm15.3 18.6c-2.5-1.2-4.8-2.8-7-4.8s-3.9-4.2-5.4-6.7h8.4c.5 2.2 1.1 4.3 1.8 6.2s1.4 3.7 2.3 5.4zm-2.2-46.4c-.7 1.9-1.3 4-1.8 6.2H11l.1-.2c1.5-2.4 3.2-4.6 5.3-6.6s4.4-3.6 7.1-4.8c-.8 1.7-1.6 3.5-2.3 5.4zm22.6 39.1c-.4 1.3-1 2.5-1.5 3.7-1.2 2.2-2.3 3.9-3.5 5s-2.1 1.6-2.9 1.6-1.7-.5-2.9-1.6-2.3-2.7-3.5-5c-.6-1.1-1.1-2.3-1.5-3.7-.4-1.3-.9-2.7-1.3-4.2h18.2c-.2 1.5-.6 2.9-1.1 4.2zm2.9-14.8c-.1 1.2-.2 2.4-.3 3.5H25.6c-.2-1.2-.3-2.4-.3-3.6-.1-1.2-.1-2.4-.1-3.7 0-1.2 0-2.5.1-3.7s.2-2.4.3-3.5h20.7v-.3c.1 1.2.2 2.5.3 3.8s.1 2.5.1 3.8c.1 1.3.1 2.5 0 3.7zm14.2 10.8c-1.5 2.4-3.2 4.6-5.3 6.5s-4.4 3.6-7.1 4.8c.8-1.6 1.6-3.4 2.3-5.4.7-1.9 1.3-4 1.8-6.2H61zm3.6-10.9c-.1 1.2-.4 2.4-.6 3.6H53.6c.1-1.2.2-2.3.2-3.5.1-1.2.1-2.5.1-3.8 0-1.2 0-2.5-.1-3.7s-.1-2.4-.3-3.5h10.3c.3 1.1.5 2.3.6 3.5s.2 2.4.2 3.7c.1 1.3.1 2.5-.1 3.7z"/></svg>
