<svg class="image -svg" width="72" height="72" viewBox="0 0 72 72" xmlns="http://www.w3.org/2000/svg"><path d="M28.8 32.4c3 0 5.5-1.1 7.6-3.2s3.2-4.7 3.2-7.6-1.1-5.5-3.2-7.6-4.7-3.2-7.6-3.2-5.5 1.1-7.6 3.2-3.2 4.6-3.2 7.6 1.1 5.5 3.2 7.6 4.6 3.2 7.6 3.2zM26.3 19c.7-.7 1.6-1.1 2.6-1.1s1.8.4 2.5 1.1 1.1 1.6 1.1 2.6-.4 1.8-1.1 2.5-1.5 1.1-2.5 1.1-1.9-.4-2.6-1.1-1.1-1.5-1.1-2.5.3-1.9 1.1-2.6z"/><path d="M62.7 2.1C61.3.7 59.6 0 57.6 0H14.4c-2 0-3.7.7-5.1 2.1S7.2 5.2 7.2 7.2v57.7c0 2 .7 3.7 2.1 5.1s3.1 2.1 5.1 2.1h43.2c2 0 3.7-.7 5.1-2.1s2.1-3.1 2.1-5.1V7.2c0-2-.7-3.7-2.1-5.1zm-5.1 62.7H14.4v-7.3h43.2zm0-14.4H36.3l11.1-14.8c.3-.4.8-.7 1.3-1s1-.4 1.6-.4c.7 0 1.3.2 1.9.5s1 .8 1.3 1.4l4.3 7.4v6.9zm0-20.4c-1-.9-2.1-1.6-3.3-2.2-1.3-.5-2.7-.8-4.1-.8-1.7 0-3.4.4-4.9 1.2s-2.7 1.8-3.8 3.1L27.3 50.4H14.4V7.2h43.2z"/></svg>
