<svg class="svg-icon" enable-background="new 0 0 551.034 551.034" viewBox="0 0 551.034 551.034" xmlns="http://www.w3.org/2000/svg" xmlns:xlink="http://www.w3.org/1999/xlink"><path d="m386.878 0h-222.722c-90.516 0-164.156 73.64-164.156 164.156v222.722c0 90.516 73.64 164.156 164.156 164.156h222.722c90.516 0 164.156-73.64 164.156-164.156v-222.722c-.001-90.516-73.641-164.156-164.156-164.156zm108.722 386.878c0 60.045-48.677 108.722-108.722 108.722h-222.722c-60.045 0-108.722-48.677-108.722-108.722v-222.722c0-60.046 48.677-108.722 108.722-108.722h222.722c60.045 0 108.722 48.676 108.722 108.722z" /><path d="m275.517 133c-78.584 0-142.517 63.933-142.517 142.516s63.933 142.517 142.517 142.517 142.517-63.933 142.517-142.517-63.933-142.516-142.517-142.516zm0 229.6c-48.095 0-87.083-38.988-87.083-87.083s38.989-87.083 87.083-87.083c48.095 0 87.083 38.988 87.083 87.083 0 48.094-38.989 87.083-87.083 87.083z" /><circle cx="418.31" cy="134.07" r="34.15"/></svg>