<svg class="svg-icon" enable-background="new 0 0 458.246 458.246" viewBox="0 0 458.246 458.246" xmlns="http://www.w3.org/2000/svg"><path d="m160.777 259.368h71.594c-12.567 35.53-46.603 61.004-86.45 60.71-48.349-.357-88.327-39.035-90.204-87.349-2.012-51.789 39.537-94.563 90.887-94.563 23.479 0 44.905 8.946 61.058 23.605 3.826 3.473 9.65 3.495 13.413-.047l26.296-24.749c4.112-3.871 4.127-10.408.027-14.292-25.617-24.269-59.981-39.396-97.876-40.136-80.826-1.578-148.955 64.691-149.518 145.531-.568 81.447 65.285 147.649 146.6 147.649 78.199 0 142.081-61.229 146.36-138.358.114-.967.189-33.648.189-33.648h-132.376c-5.426 0-9.824 4.398-9.824 9.824v35.999c0 5.426 4.399 9.824 9.824 9.824z"/><path d="m414.464 206.99v-35.173c0-4.755-3.854-8.609-8.609-8.609h-29.604c-4.755 0-8.609 3.854-8.609 8.609v35.173h-35.173c-4.755 0-8.609 3.854-8.609 8.609v29.604c0 4.755 3.854 8.609 8.609 8.609h35.173v35.173c0 4.755 3.854 8.609 8.609 8.609h29.604c4.755 0 8.609-3.854 8.609-8.609v-35.173h35.173c4.755 0 8.609-3.854 8.609-8.609v-29.604c0-4.755-3.854-8.609-8.609-8.609z"/></svg>