<svg class="svg-icon" enable-background="new 0 0 415.49 415.49" height="415.49" viewBox="0 0 415.49 415.49" width="415.49" xmlns="http://www.w3.org/2000/svg"><path d="m411.188 392.062-124.313-124.312-1.912 1.912c24.862-28.688 40.162-66.937 40.162-107.1 0-89.887-72.675-162.562-162.563-162.562s-162.562 72.675-162.562 162.562 72.675 162.562 162.562 162.562c42.075 0 78.412-15.3 107.1-40.162l-1.912 1.912 124.312 124.312c5.737 5.737 13.388 5.737 19.125 0s5.738-13.386.001-19.124zm-248.626-86.062c-78.412 0-143.437-65.025-143.437-143.438s65.025-143.438 143.438-143.438c78.412.001 143.437 65.026 143.437 143.438 0 78.413-65.025 143.438-143.438 143.438z"/><path d="m172.125 76.5h-19.125v76.5h-76.5v19.125h76.5v76.5h19.125v-76.5h76.5v-19.125h-76.5z"/></svg>