<svg class="svg-icon" enable-background="new 0 0 72 72" viewBox="0 0 72 72" xmlns="http://www.w3.org/2000/svg"><path d="m50.5 21.1c-1.5-.9-3.3-1.5-5.2-1.5-1.5 0-3 .3-4.3 1-.3.1-.5.3-.8.4l-12.4 6.8-6.2-4.3c-.1-.1-.2-.1-.3-.2l-.1-.1c-1.2-.8-2.6-1.3-4.2-1.3.1-.5.2-1.1.2-1.6 0-4.4-3.6-7.9-7.9-7.9-4.4 0-7.9 3.6-7.9 7.9 0 4.4 3.6 7.9 7.9 7.9h.3 7c.6 0 1.2.3 1.6.7l3.5 3.5-3.5 3.6c-.4.4-1 .7-1.6.7h-7c-.1 0-.2 0-.3 0-4.4 0-7.9 3.6-7.9 7.9 0 .9.1 1.7.4 2.4-1 .5-1.7 1.6-1.7 2.9 0 1.8 1.4 3.2 3.2 3.2.7 0 1.4-.2 1.9-.6.3-.2.7-.4 1.2-.4.2 0 .5 0 .7.1.7.2 1.5.4 2.3.4 4.4 0 7.9-3.6 7.9-7.9 0-.6-.1-1.1-.2-1.6 1.5-.1 3-.6 4.2-1.3l.1-.1c.1-.1.2-.1.3-.2zm-41.2 2.8c-2 0-3.5-1.6-3.5-3.5 0-2 1.6-3.5 3.5-3.5 2 0 3.5 1.6 3.5 3.5s-1.6 3.5-3.5 3.5zm17.3 6.3c1.2 0 2.2 1 2.2 2.2s-1 2.2-2.2 2.2-2.2-1-2.2-2.2 1-2.2 2.2-2.2zm-17.3 17.9c-2 0-3.5-1.6-3.5-3.5 0-2 1.6-3.5 3.5-3.5 2 0 3.5 1.6 3.5 3.5s-1.6 3.5-3.5 3.5z"/><path d="m37.7 35.1-6.1 4.3 8.5 4.6c.3.2.5.3.8.4 1.3.6 2.8 1 4.3 1 1.9 0 3.7-.5 5.2-1.5z"/><path d="m62.8 27.4v4.6h4.6v4.6h4.6v-9.2z"/><path d="m67.4 55h-4.6v4.6h9.2v-9.2h-4.6z"/><path d="m26 50.4h-4.6v9.2h9.2v-4.6h-4.6z"/><path d="m49 27.4h9.2v4.6h-9.2z"/><path d="m49 55h9.2v4.6h-9.2z"/><path d="m35.2 55h9.2v4.6h-9.2z"/><path d="m67.4 41.2h4.6v4.6h-4.6z"/></svg>