<svg class="svg-icon" enable-background="new 0 0 72 72" viewBox="0 0 72 72" xmlns="http://www.w3.org/2000/svg"><path d="m44.6 25.7h13.7v6.9h-13.7z"/><path d="m24 25.7h13.7v20.6h-13.7z"/><path d="m44.6 39.4h13.7v6.9h-13.7z"/><path d="m65.1 12h-48c-3.8 0-6.9 3.1-6.9 6.9h-3.3c-2.4.1-4.4 1.3-5.7 3.1-.8 1.1-1.2 2.5-1.2 3.9v21.7c0 7.4 3.4 12.4 11.7 12.4h53.4c3.8 0 6.9-3.1 6.9-6.9v-34.2c0-3.8-3.1-6.9-6.9-6.9zm-54.8 18.9h-1.7v5.1h1.7v6h-1.7v5.1h1.7v3.4c0 1-.8 1.7-1.7 1.7s-1.7-.8-1.7-1.7v-24.8h3.5v5.2zm54.8 19c0 1.8-1.4 3.2-3.2 3.3h-44.8v-34.3h48z"/></svg>