<svg class="svg-icon" enable-background="new 0 0 72 72" viewBox="0 0 72 72" xmlns="http://www.w3.org/2000/svg"><path d="m11.5 15.8h23.1v5.8h-23.1z"/><path d="m11.5 27.3h23.1v5.8h-23.1z"/><path d="m66.2 15.8h-20.1v-5.8c0-3.2-2.6-5.8-5.8-5.8h-34.5c-3.2.1-5.8 2.6-5.8 5.8v28.8c0 3.2 2.6 5.8 5.8 5.8h5.8v9.4c0 1.2 1 2.2 2.2 2.2.6 0 1.2-.3 1.6-.7l10.6-10.6v5.5c0 3.2 2.6 5.8 5.8 5.8h16.8l10.9 10.9c.4.4.9.7 1.6.7 1.2 0 2.2-1 2.2-2.2v-9.4h3.1c3.2 0 5.8-2.6 5.8-5.8v-28.8c-.2-3.2-2.8-5.8-6-5.8zm-42.3 23.1-7 7v-7h-11.1v-28.9h34.6v28.8h-16.5zm42.3 11.5h-8v7.4l-7.4-7.4h-19.2v-5.8h28.8v-5.8h-14.3v-5.7h14.3v-5.8h-14.3v-5.8h20.1z"/></svg>