<svg class="svg-icon" enable-background="new 0 0 72 72" viewBox="0 0 72 72" xmlns="http://www.w3.org/2000/svg"><path d="m64.8 10.9h-57.6c-4 0-7.2 3.2-7.2 7.2v35.9c0 4 3.2 7.2 7.2 7.2h57.7c4 0 7.2-3.2 7.2-7.2v-35.9c-.1-4-3.3-7.2-7.3-7.2zm0 43h-57.6v-35.8h57.7v35.8z"/><path d="m40.4 25.2h17.3v7.2h-17.3z"/><path d="m40.4 39.6h17.3v7.2h-17.3z"/><path d="m27.3 37.6c-.3-.1-.5-.4-.5-.8 0-.2.1-.4.2-.5 1.1-1.1 2.1-2.9 2.1-5.2 0-3-1.7-5.9-5.2-5.9s-5.2 2.9-5.2 5.9c0 2.3 1 4.1 2.1 5.2.1.2.2.3.2.5 0 .4-.2.7-.5.8-2.8.8-6.2 2.7-7.1 4.8-.2.4-.2.8-.2 1.2 0 1.5 1.1 2.8 2.5 3h16.7c1.4-.2 2.5-1.5 2.5-3 0-.4-.1-.8-.2-1.2-1.2-2-4.6-3.9-7.4-4.8z"/></svg>