<svg class="image -svg" width="72" height="72" fill="currentColor" enable-background="new 0 0 72 72" viewBox="0 0 72 72" xmlns="http://www.w3.org/2000/svg"><path d="m50.6 0h-29.2c-11.8 0-21.4 9.6-21.4 21.4v29.1c0 11.9 9.6 21.5 21.4 21.5h29.1c11.9 0 21.5-9.6 21.5-21.4v-29.2c0-11.8-9.6-21.4-21.4-21.4zm14.2 50.6c0 7.8-6.4 14.2-14.2 14.2h-29.2c-7.8 0-14.2-6.4-14.2-14.2v-29.2c0-7.8 6.4-14.2 14.2-14.2h29.1c7.8 0 14.2 6.4 14.2 14.2z"/><path d="m36 17.4c-10.3 0-18.6 8.4-18.6 18.6s8.3 18.6 18.6 18.6 18.6-8.3 18.6-18.6-8.3-18.6-18.6-18.6zm0 30c-6.3 0-11.4-5.1-11.4-11.4s5.1-11.4 11.4-11.4 11.4 5.1 11.4 11.4-5.1 11.4-11.4 11.4z"/><circle cx="54.7" cy="17.5" r="4.5"/></svg>
