<svg class="image -svg" width="72" height="72" enable-background="new 0 0 72 72" viewBox="0 0 72 72" xmlns="http://www.w3.org/2000/svg"><path d="m29.2 50.8c2.1-2.1 3.2-4.7 3.2-7.6s-1.1-5.5-3.2-7.6-4.7-3.2-7.6-3.2c-3 0-5.5 1.1-7.6 3.2s-3.2 4.7-3.2 7.6 1.1 5.5 3.2 7.6 4.7 3.2 7.6 3.2c3 0 5.5-1.1 7.6-3.2zm-11.2-7.6c0-1 .4-1.9 1.1-2.6s1.5-1.1 2.5-1.1 1.9.4 2.6 1.1 1.1 1.6 1.1 2.6-.4 1.8-1.1 2.5-1.6 1.1-2.6 1.1-1.8-.4-2.5-1.1-1.1-1.5-1.1-2.5z"/><path d="m69.9 2.1c-1.4-1.4-3.1-2.1-5.2-2.1h-43.1c-2 0-3.7.7-5.1 2.1s-2.1 3.1-2.1 5.1v14.4h-7.1c-2 0-3.7.7-5.1 2.1-1.5 1.4-2.2 3.1-2.2 5.1v36c0 2 .7 3.7 2.1 5.1s3.1 2.1 5.2 2.1h43.2c2 0 3.7-.7 5.1-2.1s2.1-3.1 2.1-5.1v-14.4h7.2c2 0 3.7-.7 5.1-2.1s2.1-3.1 2.1-5.1v-36c-.1-2-.8-3.6-2.2-5.1zm-48.3 5.1h43.2v17.2c-.4-.2-.7-.5-1.1-.7-1.4-.6-2.9-1-4.4-1-.7 0-1.3.1-2 .2-.6.1-1.3.3-1.9.5 0 0 .1.1.1.1-1.4-1.4-3-2-5-2h-3.6c0-3-1.1-5.5-3.2-7.6s-4.7-3.2-7.6-3.2c-3 0-5.5 1.1-7.6 3.2s-3.2 4.7-3.2 7.6h-3.6v-14.3zm35.4 18.7c0-.1-.1-.2-.1-.3 0 .2.1.2.1.3zm-.7-1.1c-.2-.2-.4-.4-.5-.7.2.2.4.4.5.7zm-16.7-3.2h-7.3c0-1 .4-1.9 1.1-2.6.7-.6 1.6-1 2.6-1s1.9.4 2.6 1.1 1 1.5 1 2.5zm-32.3 7.2h43.2v17.3c-.4-.2-.8-.5-1.2-.7-1.3-.6-2.8-.9-4.4-.9-2 0-3.8.5-5.5 1.4-1.6 1-2.9 2.2-3.9 3.9l-8.7 15h-19.5zm27.8 36 6.6-11.4c.3-.6.7-1 1.3-1.3s1.2-.5 1.9-.5c.5 0 1 .1 1.4.3s.8.5 1.2.9l3 3.2v8.8zm22.5-21.6v-12.7c.2-.2.5-.3.8-.3.3-.1.6-.1.8-.1.6 0 1.1.1 1.5.3s.8.5 1.2.9l2.9 3.1v8.9h-7.2z"/></svg>
