<svg class="image -svg" width="72" height="72" enable-background="new 0 0 72 72" viewBox="0 0 72 72" xmlns="http://www.w3.org/2000/svg"><path d="m47.3 61.2h-21.6c-1 0-1.9.4-2.6 1.1s-1.1 1.6-1.1 2.6.4 1.8 1.1 2.5 1.6 1.1 2.6 1.1h21.6c1 0 1.9-.4 2.6-1.1s1.1-1.5 1.1-2.5-.4-1.9-1.1-2.6-1.6-1.1-2.6-1.1z"/><path d="m69.3 6.8c-2.1-2.1-4.7-3.2-7.6-3.2h-50.4c-3 0-5.5 1.1-7.6 3.2s-3.2 4.7-3.2 7.6v32.4c0 3 1.1 5.5 3.2 7.6s4.7 3.2 7.6 3.2h50.4c3 0 5.5-1.1 7.6-3.2s3.2-4.7 3.2-7.6v-32.4c0-3-1.1-5.5-3.2-7.6zm-4.1 40c0 1-.4 1.9-1.1 2.6s-1.5 1.1-2.5 1.1h-50.3c-1 0-1.8-.4-2.5-1.1s-1.1-1.6-1.1-2.6v-32.4c0-1 .4-1.8 1.1-2.5s1.5-1.1 2.5-1.1h50.4c1 0 1.8.4 2.5 1.1s1.1 1.5 1.1 2.5v32.4z"/></svg>
