<svg class="svg-icon" viewBox="0 0 72 72" xmlns="http://www.w3.org/2000/svg"><path d="M37.2 5.8c-1.1 0-2.1.5-2.7 1.3l-7.7 7.7h-8.3c-3.8 0-6.8 3.1-6.8 6.8v2.9H3.4C1.5 24.5 0 26 0 27.9v16.3c0 1.9 1.5 3.4 3.4 3.4h8.2v2.9c0 3.8 3.1 6.8 6.8 6.8h8.3l7.7 7.7c.6.8 1.6 1.3 2.7 1.3 1.9 0 3.5-1.6 3.5-3.5V9.3c.1-1.9-1.5-3.5-3.4-3.5zm-3.5 48.7l-2.1-2.1c-1.3-1.3-3-2-4.7-2h-8.4V21.6h8.4c1.7 0 3.4-.7 4.7-2l2.1-2.1zm19.8-34.7c-1.3-1.3-3.4-1.3-4.7 0s-1.3 3.4 0 4.7c3.1 3.1 4.7 7.2 4.7 11.5s-1.7 8.4-4.8 11.5c-1.3 1.3-1.3 3.4 0 4.7s3.4 1.3 4.7 0c9-8.9 9-23.5.1-32.4z"/><path d="M61.8 11.4c-1.3-1.3-3.4-1.3-4.7 0s-1.3 3.4 0 4.7C68 27 68 44.9 57.1 55.8H57c-1.3 1.3-1.3 3.4 0 4.7s3.4 1.3 4.7 0c13.7-13.4 13.7-35.5.1-49.1z"/></svg>