<svg enable-background="new 0 0 72 72" viewBox="0 0 72 72" xmlns="http://www.w3.org/2000/svg"><path d="m69.6 4.7-2.3-2.3c-.7-.7-1.6-1.3-2.5-1.8s-2-.6-3.1-.6-2.2.2-3.2.6-1.8 1-2.5 1.7l-39.2 39.7-4 13.8v-.1c-.1.2-.1.3-.1.5s0 .3 0 .5v.5c0 .2.1.3.1.4v.1c.2.7.6 1.2 1.2 1.6s1.2.6 1.9.6h.5s.3 0 .4-.1l13.6-3.8 39.3-39.8c1.6-1.6 2.3-3.5 2.3-5.7s-.8-4.2-2.4-5.8zm-4.2 6.4c-.1.2-.2.4-.3.5l-38.1 38.6-6.4 1.8 1.9-6.5 38.1-38.5c.1-.1.3-.2.5-.3s.4-.1.6-.1.4 0 .6.1.4.2.5.3l2.3 2.4c.1.1.2.3.3.5s.1.4.1.6 0 .4-.1.6z"/><path d="m61.4 42.6c-.9 0-1.7.3-2.3.9s-.9 1.4-.9 2.4v13.1c0 1.8-.6 3.3-1.9 4.6s-2.8 1.9-4.6 1.9h-38.7c-1.8 0-3.3-.6-4.6-1.9s-1.9-2.8-1.9-4.6v-39.4c0-1.8.6-3.3 1.9-4.6s2.8-1.9 4.6-1.9h12.9c.9 0 1.7-.3 2.3-1 .6-.6.9-1.4.9-2.3s-.3-1.7-.9-2.3-1.4-1-2.3-1h-12.9c-3.6 0-6.7 1.3-9.2 3.8s-3.8 5.7-3.8 9.3v39.3c0 3.6 1.3 6.7 3.8 9.2s5.6 3.9 9.2 3.9h38.7c3.6 0 6.7-1.3 9.2-3.8 2.5-2.6 3.8-5.6 3.8-9.2v-13.2c0-1-.3-1.7-1-2.4-.6-.5-1.4-.8-2.3-.8z"/></svg>