<svg enable-background="new 0 0 72 72" viewBox="0 0 72 72" xmlns="http://www.w3.org/2000/svg"><path d="m18.4 52.5c-1 0-1.9.4-2.6 1.1s-1.1 1.6-1.1 2.6.4 1.9 1.1 2.6 1.6 1.1 2.6 1.1 1.8-.4 2.5-1.1 1.1-1.6 1.1-2.6-.4-1.9-1.1-2.6c-.6-.7-1.5-1.1-2.5-1.1z"/><path d="m69.8 36.3c-1.4-1.4-3.2-2.2-5.2-2.2h-2.2c-1 0-2 .2-2.9.6s-1.7.9-2.4 1.6l-6.9 7-.1-.2c-.9-2.1-2.1-3.8-3.8-5.3 4.3-.1 8.1-1.7 11.2-4.8 3.2-3.2 4.9-7.1 4.9-11.7s-1.6-8.5-4.9-11.7-7-4.8-11.5-4.8c-2.4 0-4.6.4-6.6 1.3s-3.8 2.1-5.4 3.7c-1.6-2.6-3.8-4.8-6.5-6.3s-5.8-2.4-9-2.4c-2.5 0-4.9.5-7.1 1.5s-4.3 2.2-6 3.9-3 3.6-4 5.8-1.4 4.6-1.4 7.1c0 2.6.5 5 1.5 7.1 1 2.2 2.3 4.2 4 5.9 1.1 1.1 2.4 2 3.7 2.8-1.8.7-3.4 1.8-4.8 3.2-3 2.9-4.4 6.4-4.4 10.5v7.3c0 4.1 1.4 7.6 4.3 10.4 2.9 2.9 6.3 4.3 10.4 4.3h22c3 0 5.8-.8 8.2-2.5s4.2-3.9 5.4-6.6l6.9 7c.7.6 1.5 1.1 2.4 1.6.9.4 1.9.6 2.9.6h2.2c2 0 3.7-.7 5.2-2.2 1.4-1.4 2.2-3.2 2.2-5.3v-22c-.1-2-.8-3.8-2.3-5.2zm-30.4-21.5c1.8-1.8 4-2.7 6.5-2.7s4.7.9 6.5 2.7 2.7 4 2.7 6.5-.9 4.7-2.7 6.5-3.9 2.7-6.5 2.7-4.8-.9-6.5-2.7c-1.8-1.8-2.7-3.9-2.7-6.5.1-2.6 1-4.7 2.7-6.5zm-6.8 16.2c.9 1.2 1.9 2.2 3 3.1h-6.4c1.3-.9 2.5-1.9 3.4-3.1zm-22-19.4c2.2-2.2 4.8-3.2 7.8-3.2s5.6 1.1 7.8 3.2 3.2 4.8 3.2 7.8-1.1 5.6-3.2 7.8-4.8 3.2-7.8 3.2-5.6-1.1-7.8-3.2-3.2-4.8-3.2-7.8 1.1-5.6 3.2-7.8zm33.5 44.6c0 2-.7 3.7-2.2 5.2-1.4 1.4-3.2 2.2-5.2 2.2h-22c-2 0-3.7-.7-5.2-2.2s-2.2-3.2-2.2-5.2v-7.3c0-2.1.7-3.8 2.2-5.3s3.2-2.2 5.2-2.2h22c2 0 3.7.7 5.2 2.2 1.4 1.4 2.2 3.2 2.2 5.3zm20.6 7.3h-2.2l-11-11 11-11h2.2z"/></svg>