<svg class="image -svg" width="72" height="72" enable-background="new 0 0 72 72" viewBox="0 0 72 72" xmlns="http://www.w3.org/2000/svg"><path d="m23.6 43.3c-1.3-2.2-2-4.6-2-7.3 0-3.9 1.4-7.3 4.2-10.1s6.2-4.3 10.2-4.3 7.4 1.4 10.2 4.2c2.8 2.9 4.2 6.2 4.2 10.2 0 2.7-.7 5.1-2 7.3s-3.1 3.9-5.3 5.1v7.9l.2-.1c2.1-.7 4-1.8 5.7-3.1s3.2-2.9 4.5-4.6 2.2-3.7 2.9-5.8 1.1-4.4 1.1-6.7c0-3-.6-5.8-1.7-8.3-1.1-2.6-2.7-4.9-4.6-6.9s-4.2-3.5-6.8-4.6c-2.6-1.2-5.4-1.8-8.4-1.8s-5.8.6-8.4 1.8c-2.6 1.1-4.9 2.7-6.8 4.6s-3.5 4.2-4.6 6.9c-1.2 2.5-1.8 5.3-1.8 8.3 0 2.4.4 4.6 1.1 6.7s1.6 4.1 2.9 5.9 2.8 3.3 4.6 4.6c1.7 1.3 3.7 2.4 5.8 3.2v-7.9h-.1c-2.1-1.3-3.8-3-5.1-5.2z"/><path d="m69.1 22c-1.9-4.3-4.4-8.1-7.7-11.4-3.2-3.3-7-5.9-11.4-7.8-4.4-1.8-9.1-2.8-14-2.8s-9.6 1-14 2.8c-4.4 1.9-8.2 4.5-11.5 7.8s-5.8 7-7.6 11.4c-1.9 4.3-2.9 9-2.9 14 0 4.4.7 8.5 2.2 12.4s3.5 7.4 6.1 10.5 5.6 5.7 9.1 7.8c3.5 2.2 7.4 3.7 11.5 4.5v-7.3l-.3-.1c-3-.8-5.9-2.1-8.5-3.8s-4.8-3.8-6.7-6.3-3.4-5.2-4.5-8.2-1.6-6.2-1.6-9.5c0-3.9.7-7.6 2.2-11.1s3.6-6.6 6.2-9.2 5.7-4.6 9.1-6.2 7.2-2.3 11.2-2.3 7.7.8 11.2 2.3 6.5 3.6 9.1 6.2 4.7 5.6 6.2 9.2c1.5 3.4 2.2 7.1 2.2 11.1 0 3.4-.5 6.5-1.6 9.5s-2.6 5.8-4.5 8.2-4.2 4.5-6.8 6.3c-2.6 1.7-5.5 3-8.7 3.9v7.3c4.1-.8 7.9-2.3 11.5-4.5 3.5-2.1 6.5-4.7 9.1-7.8s4.6-6.6 6.1-10.5 2.2-8 2.2-12.4c0-5-1-9.7-2.9-14z"/><path d="m41.1 30.9c-1.4-1.4-3.1-2.1-5.1-2.1s-3.7.7-5.1 2.1-2.1 3.1-2.1 5.1c0 1.3.3 2.6 1 3.7.6 1.1 1.5 2 2.6 2.6v29.7h7.3v-29.8c1.1-.6 1.9-1.5 2.6-2.6.6-1.1 1-2.3 1-3.7-.1-1.9-.8-3.6-2.2-5z"/></svg>
