<svg class="svg-icon" height="493.352" viewBox="0 0 493.353 493.352" width="493.353" xmlns="http://www.w3.org/2000/svg"><path d="M490.786 212.678c-1.718-1.713-3.901-2.568-6.57-2.568H127.907v-63.953c0-3.809-1.812-6.567-5.424-8.28-3.621-1.521-6.952-.949-9.995 1.713L2.853 240.658C.95 242.564 0 244.848 0 247.511c0 2.474.95 4.665 2.853 6.567l109.636 99.928c3.046 2.474 6.377 2.956 9.995 1.427 3.612-1.52 5.424-4.278 5.424-8.278v-63.953h356.315c2.663 0 4.854-.859 6.564-2.567 1.711-1.711 2.566-3.897 2.566-6.563v-54.821c.003-2.665-.856-4.858-2.567-6.573z"/></svg>