<svg class="svg-icon" viewBox="0 0 72 72" xmlns="http://www.w3.org/2000/svg"><path d="M11.5 15.8h23.1v5.8H11.5zm0 11.5h23.1v5.8H11.5z"/><path d="M66.2 15.8H46.1V10c0-3.2-2.6-5.8-5.8-5.8H5.8C2.6 4.3 0 6.8 0 10v28.8c0 3.2 2.6 5.8 5.8 5.8h5.8V54c0 1.2 1 2.2 2.2 2.2.6 0 1.2-.3 1.6-.7L26 44.9v5.5c0 3.2 2.6 5.8 5.8 5.8h16.8l10.9 10.9c.4.4.9.7 1.6.7 1.2 0 2.2-1 2.2-2.2v-9.4h3.1c3.2 0 5.8-2.6 5.8-5.8V21.6c-.2-3.2-2.8-5.8-6-5.8zM23.9 38.9l-7 7v-7H5.8V10h34.6v28.8H23.9zm42.3 11.5h-8v7.4l-7.4-7.4H31.6v-5.8h28.8v-5.8H46.1v-5.7h14.3v-5.8H46.1v-5.8h20.1z"/></svg>