<svg class="c-media__svg" width="72" height="72" fill="currentColor" enable-background="new 0 0 72 72" viewBox="0 0 72 72" xmlns="http://www.w3.org/2000/svg"><path d="m64.3 0c2.1 0 4 .8 5.5 2.2s2.2 3.4 2.2 5.5v56.6c0 2.1-.8 4-2.2 5.5s-3.4 2.2-5.5 2.2h-56.6c-2.1 0-4-.8-5.5-2.2s-2.2-3.4-2.2-5.5v-56.6c0-2.1.8-4 2.2-5.5s3.4-2.2 5.5-2.2zm-7.9 25.6c2-1.5 3.8-3.3 5.3-5.5-2 .9-4.1 1.4-6.1 1.6 2.2-1.4 3.8-3.3 4.7-5.8-2.1 1.3-4.4 2.1-6.8 2.6-2-2.2-4.6-3.4-7.6-3.4-2.1 0-4.1.6-5.9 1.8s-3.1 2.8-3.9 4.7-1 4.2-.5 6.5c-4.4-.2-8.5-1.3-12.2-3.3s-7-4.6-9.6-7.8c-1 1.6-1.4 3.3-1.4 5.2s.4 3.6 1.3 5.1c.9 1.6 2 2.8 3.5 3.8-1.7-.1-3.3-.6-4.8-1.4v.2c0 2.6.8 4.8 2.4 6.8 1.6 1.9 3.6 3.2 6.1 3.7-1.5.3-3.1.4-4.8.2.6 2.1 1.9 3.9 3.7 5.2s3.9 2 6.1 2c-3.9 3-8.2 4.5-13 4.5h-2.6c4.9 3.1 10.3 4.7 16.2 4.7 6.1 0 11.6-1.6 16.4-4.7 4.3-2.8 7.7-6.6 10.1-11.4 2.2-4.5 3.4-9.2 3.4-14z"/></svg>
