<svg class="c-media__svg" width="72" height="72" fill="currentColor" enable-background="new 0 0 72 72" viewBox="0 0 72 72" xmlns="http://www.w3.org/2000/svg"><path d="m66.9 0c1.4 0 2.6.5 3.6 1.5s1.5 2.2 1.5 3.6v61.7c0 1.4-.5 2.6-1.5 3.6s-2.2 1.5-3.6 1.5h-61.8c-1.4 0-2.6-.5-3.6-1.5s-1.5-2.2-1.5-3.6v-61.7c0-1.4.5-2.6 1.5-3.6s2.3-1.5 3.6-1.5zm-50.5 22.7c1.7 0 3.2-.6 4.4-1.8s1.8-2.7 1.8-4.3c0-1.7-.6-3.1-1.8-4.3s-2.7-1.8-4.4-1.8-3.2.6-4.3 1.8-1.8 2.7-1.8 4.3c0 1.7.6 3.1 1.8 4.3s2.6 1.8 4.3 1.8zm5.3 39h.2v-34.4h-10.8v34.4zm40 0v-18.8c0-5.4-.8-9.3-2.2-11.7-2-3.1-5.5-4.7-10.4-4.7-2.5 0-4.7.6-6.6 1.8-1.6 1-2.8 2.2-3.5 3.7h-.2v-4.7h-10.4v34.4h10.6v-17c0-2.7.4-4.7 1.1-6.1 1.1-1.8 2.8-2.7 5.3-2.7s4.1 1 4.8 3.1c.5 1.3.8 3.3.8 6.1v16.7h10.7z"/></svg>
