<svg class="c-media__svg" width="10.5" height="10.5" fill="currentColor" viewBox="0 0 10.5 10.5" xmlns="http://www.w3.org/2000/svg"><path d="m8.18 3.04c-.13-.35-.37-.59-.72-.72-.18-.07-.48-.11-.9-.13-.25-.01-.59-.02-1.04-.02h-.53c-.45 0-.79 0-1.04.02-.41.02-.71.07-.9.13-.35.13-.59.37-.72.72-.07.18-.11.48-.13.9-.01.25-.02.59-.02 1.04v.53c0 .45 0 .79.02 1.04.02.41.07.71.13.9.14.35.38.59.72.72.19.07.49.11.9.13.25.01.59.02 1.04.02h.53c.46 0 .8 0 1.04-.02.42-.02.72-.07.9-.13.35-.14.58-.38.72-.72.07-.19.11-.49.13-.9.01-.25.02-.59.02-1.04v-.53c0-.46 0-.8-.02-1.04-.02-.42-.07-.72-.13-.9zm-1.26 3.17c-.17.3-.41.53-.7.7-.3.17-.62.26-.96.26s-.67-.09-.96-.26c-.3-.17-.53-.41-.7-.7-.17-.3-.26-.62-.26-.96s.09-.67.26-.96c.17-.3.41-.53.7-.7.3-.17.62-.26.96-.26s.67.09.96.26c.3.17.53.41.7.7.17.3.26.62.26.96s-.09.67-.26.96zm.65-2.65c-.08.09-.19.13-.31.13s-.23-.04-.32-.13-.13-.2-.13-.32.04-.23.13-.32.2-.13.32-.13.23.04.32.13.13.2.13.32c-.01.12-.06.23-.14.32z"/><path d="m5.25 4c-.35 0-.64.12-.89.37s-.37.54-.37.89.12.64.37.89.54.37.89.37.64-.12.89-.37.37-.54.37-.89-.12-.64-.37-.89-.54-.37-.89-.37z"/><path d="m10.17.33c-.22-.22-.48-.33-.8-.33h-8.25c-.31 0-.58.11-.8.33s-.33.48-.33.8v8.25c0 .31.11.58.33.8s.48.33.8.33h8.25c.31 0 .58-.11.8-.33s.33-.48.33-.8v-8.26c0-.31-.11-.58-.33-.8zm-1.2 6.48c-.02.32-.06.59-.14.83-.1.28-.25.52-.46.73s-.45.36-.73.46c-.23.08-.51.13-.83.14-.32.02-.84.03-1.56.03s-1.25 0-1.56-.03-.59-.07-.83-.16c-.28-.09-.52-.24-.73-.44s-.36-.45-.46-.73c-.08-.23-.13-.51-.14-.83-.02-.32-.03-.84-.03-1.56s0-1.25.03-1.56c.02-.32.06-.59.14-.83.1-.28.25-.52.46-.73s.45-.36.73-.46c.23-.08.51-.13.83-.14s.84-.03 1.56-.03 1.25 0 1.56.03c.32.02.59.06.83.14.28.1.52.25.73.46s.36.45.46.73c.08.23.13.51.15.84.01.31.02.83.02 1.55s0 1.25-.03 1.56z"/></svg>
