<svg class="c-media__svg" width="10.5" height="10.5" fill="currentColor" viewBox="0 0 10.5 10.5" xmlns="http://www.w3.org/2000/svg"><path d="m9.38 0c.31 0 .58.11.8.33s.33.48.33.8v8.25c0 .31-.11.58-.33.8s-.48.33-.8.33h-8.26c-.31 0-.58-.11-.8-.33s-.33-.48-.33-.8v-8.26c0-.31.11-.58.33-.8s.48-.33.8-.33h8.25zm-2.88 9c.78-.27 1.41-.74 1.89-1.42s.71-1.45.71-2.31c0-.7-.18-1.34-.53-1.92s-.82-1.03-1.42-1.36-1.24-.49-1.95-.49-1.35.16-1.93.49-1.04.78-1.37 1.36-.49 1.22-.49 1.92c0 .86.24 1.63.73 2.31s1.12 1.15 1.9 1.42c.09.02.16 0 .2-.04s.06-.09.06-.15v-.96l-.28.05c-.23 0-.43-.02-.59-.07-.22-.08-.37-.23-.45-.45l-.12-.23c-.09-.17-.2-.28-.3-.33-.06-.03-.11-.07-.14-.12-.05-.08 0-.12.16-.12l.09.02c.09.02.18.05.26.12.09.06.17.15.23.26.16.27.36.41.61.42.17.02.35-.02.54-.09.03-.23.11-.41.23-.52-.38-.05-.65-.1-.82-.16-.3-.09-.52-.25-.66-.47-.17-.27-.26-.62-.26-1.08 0-.2.03-.37.08-.5s.15-.27.29-.41c-.05-.11-.08-.23-.09-.38-.02-.23.02-.46.12-.68.14-.05.36 0 .66.16l.42.26c.31-.09.64-.14.97-.14s.66.04.97.12c.12-.08.27-.16.42-.23.3-.16.52-.21.66-.16.09.22.13.45.12.68-.02.14-.04.27-.07.38.14.16.23.29.28.4.08.14.12.31.12.52 0 .45-.09.81-.28 1.08-.14.22-.36.38-.66.47-.19.06-.47.12-.84.16.17.14.26.38.26.7v1.31c0 .06.02.11.07.15s.11.05.19.04zm-3.66-2.23s0-.03-.02-.05-.05-.02-.07 0 0 .04.04.06.06.02.06-.01zm.16.16s.03-.04 0-.07-.06-.04-.08-.01-.02.05.01.08.05.03.07 0zm.16.23s.03-.05 0-.09-.06-.06-.09-.04-.03.05 0 .09.06.05.09.04zm.21.21s0-.05-.04-.09-.07-.05-.09-.02-.02.07.02.11.07.04.11.01zm.28.14s0-.08-.06-.09-.09 0-.11.04 0 .07.06.08.09 0 .11-.02zm.33.02s-.03-.07-.08-.07-.08.02-.08.06.03.06.08.06.08-.02.08-.05zm.21.02c.06-.02.09-.04.08-.08s-.04-.05-.09-.05-.08.03-.07.07.04.06.08.06z" /></svg>
