<svg class="image -svg" width="72" height="72" xmlns="http://www.w3.org/2000/svg"><path d="M36 .9c-5 0-9.6 1-14 2.9-4.3 1.9-8.2 4.4-11.4 7.7-3.3 3.3-5.8 7.1-7.7 11.4-2 4.3-2.9 9-2.9 14 0 3.9.6 7.7 1.8 11.3s2.9 6.9 5.1 9.9 4.8 5.6 7.8 7.8c3 2.3 6.3 4 9.9 5.2.9.2 1.5 0 1.9-.4s.5-.9.5-1.4v-6c-5 1.1-8.3.5-9.8-1.6s-2.3-3.2-2.3-3.2c-.8-2.1-1.7-3.5-2.7-4.2-.9-.7-1.4-1.1-1.4-1.1-1.6-1.1-2-1.8-1.1-1.9.9-.2 1.4-.3 1.4-.3 1.8.1 3.2.8 4.1 1.9 1 1.2 1.4 1.8 1.4 1.8 1.6 2.7 3.5 4 5.6 3.8 2.2-.1 3.8-.4 4.8-.9.2-1.2.5-2.2.9-3s.9-1.4 1.4-1.9c-3.9-.5-7.7-1.8-11.1-4.1C14.8 46.5 13 41.9 13 35c0-2 .3-3.8 1-5.4.6-1.6 1.5-3 2.7-4.3-.2-.5-.4-1.6-.7-3.3s.1-3.8 1.1-6.3c0 0 .8 0 2.4.1s4.1 1.2 7.5 3.6c1.4-.4 2.9-.7 4.4-.9s3-.3 4.6-.3c1.5 0 3 .1 4.6.3 1.5.2 3 .5 4.5.9 3.4-2.3 6-3.5 7.5-3.6 1.6-.1 2.4-.1 2.4-.1 1 2.5 1.3 4.6 1 6.3s-.5 2.8-.7 3.3c1.1 1.2 2 2.7 2.7 4.3.6 1.6 1 3.4 1 5.4 0 6.9-1.7 11.5-5.2 13.7-3.5 2.3-7.2 3.6-11.2 4.1.7.6 1.3 1.4 1.7 2.5.5 1.1.7 2.5.7 4.1v9.9c0 .5.2 1 .5 1.4.4.4 1 .5 1.9.4 3.6-1.2 6.9-3 9.9-5.2s5.6-4.8 7.7-7.8c2.2-3 3.9-6.3 5.1-9.9S72 40.8 72 36.9c0-5-1-9.6-2.9-14-1.9-4.3-4.4-8.2-7.7-11.4-3.2-3.3-7.1-5.9-11.4-7.8C45.6 1.8 40.9.9 36 .9z"/></svg>