<svg id="creative_animated" width="1606" height="526.02" fill="currentColor" class="c-media__svg" viewBox="0 0 1606 526.02" xmlns="http://www.w3.org/2000/svg"><g stroke="#FFF" stroke-width="6"><path d="m571.35 109.69c-84.12 0-170.71 75.92-224.88 147.32 7.8-22.16 11.49-38.57 11.49-53.76 0-8.62-6.57-9.85-11.9-9.85-15.59 0-34.06 27.08-61.14 46.37s0 0 0 0l-16 11.49c-31.6 22.57-63.2 32.01-90.69 32.01-60.73 0-83.71-24.21-83.71-58.27 0-103.41 135.01-208.87 202.31-208.87 29.55 0 42.27 15.6 42.27 31.6 0 17.64-15.18 35.7-41.45 35.7-17.64 0-35.29-9.03-35.29-25.44 0-6.16 2.46-13.13 8.21-21.34-57.86 19.29-70.99 53.35-70.99 66.48 0 39.4 26.26 55.81 60.32 55.81 70.17 0 115.72-53.76 115.72-98.08 0-31.19-22.57-57.86-75.5-57.86-109.17-0-297.12 103.82-297.12 256.06 0 47.19 27.9 81.66 89.87 81.66 66.89 0 162.5-68.12 182.2-82.07s0 0 0 0l16.01-11.49c4.1-2.87 16.41-12.72 16.41-12.72-9.44 29.55-39.4 68.94-62.37 91.92h71.81c7.39-16.41 13.54-30.37 18.88-43.09 36.93-50.47 111.62-126.39 183.43-126.39 20.93 0 41.86 6.56 61.14 22.16 18.47-14.77 25.85-29.14 25.85-41.04 0-16.83-14.78-28.31-34.88-28.31z"/><path d="m1289.89 48.55c-2.87 48.01-84.94 89.87-137.06 91.51-8.62-14.77-27.08-20.93-44.32-20.93-19.7 0-38.16 7.8-38.16 18.47 0 5.74 5.33 11.9 18.47 18.47 16.41 9.44 23.8 31.6 23.8 55.4 0 37.75-18.88 79.61-50.47 79.61-12.72 0-17.64-8.62-17.64-20.93 0-20.93 13.54-52.94 25.85-71.81-3.28-2.87-7.39-3.69-11.49-3.69-8.62 0-18.47 4.51-25.44 9.85-11.9 8.62-28.31 22.98-45.55 35.29s0 0 0 0l-16 11.49c-20.52 14.77-34.06 20.52-42.27 20.52-6.98 0-9.85-4.1-9.85-11.08 0-16.41 17.65-47.19 41.45-68.53-5.34-1.64-10.26-2.46-15.18-2.46-30.37 0-55.4 30.37-70.99 61.97-19.7 14.77-41.86 22.16-54.99 22.16-8.21 0-13.54-2.87-13.54-9.03 0-18.06 36.11-69.35 77.56-117.77 41.45 6.15 82.07 13.54 108.33 13.54 34.06 0 54.99-21.34 54.99-38.57 0-11.49-9.44-21.34-31.19-21.34-17.24 0-30.78 11.08-30.78 24.21 0 6.57 3.28 13.54 11.08 19.7-22.98 0-59.91-8.21-97.67-15.18 25.85-28.73 51.7-54.58 71.4-69.35-2.05-.82-4.1-2.46-7.79-2.46-5.75 0-16.41 4.1-37.75 21.75-18.06 14.77-35.29 30.37-51.7 45.55-20.11-3.28-36.52-4.51-50.07-4.51-52.93 0-63.6 20.52-63.6 31.19 0 8.21 7.39 14.77 18.06 14.77 2.46 0 4.93 0 7.8-.82-4.1-5.33-6.16-9.85-6.16-13.54 0-11.08 10.67-14.36 25.44-14.36s33.65 3.28 50.47 4.93c-36.46 36.25-66.94 72.28-87.81 102.85l-8.22 5.9c-20.52 14.77-34.47 20.93-43.09 20.93s-12.31-5.75-12.31-14.36c0-17.24 14.36-46.37 33.65-66.89h-4.51c-11.08 0-21.34 3.69-30.78 9.85-3.28-9.03-13.95-13.13-25.03-13.13-37.15 0-77.37 27.16-104.41 57.84l-8.03 5.76c-20.52 15.18-58.27 32.83-82.89 32.83-12.72 0-22.16-4.51-24.21-17.24 59.91-6.98 98.49-40.63 98.49-62.79 0-11.49-10.26-19.7-33.24-19.7-44.32 0-128.85 61.96-128.85 114.9 0 20.11 18.47 29.14 37.34 29.14 36.29 0 86.2-32.07 122.71-57.77-8.29 13.65-13.14 26.75-13.14 37.25 0 13.95 8.62 23.39 29.14 23.39 21.75 0 55.81-25.44 80.84-48.01-2.05 8.62-3.28 16.83-3.28 23.8 0 13.13 4.1 22.16 12.31 22.16 18.77 0 62.29-37.46 93.45-61.56-10.5 18.33-16.3 33.63-16.3 44.32s6.16 17.23 19.29 17.23c22.57 0 82.89-40.22 112.03-60.73-5.74 15.18-8.62 29.14-8.62 38.98 0 13.13 4.51 21.75 13.13 21.75 25.85 0 90.28-59.91 105.46-70.58l16-11.49-.06-.07 4.99-3.62c-11.49 19.29-19.7 46.37-19.7 65.66 0 16.41 10.26 23.8 26.26 23.8 84.94 0 152.24-94.38 152.24-168.25 9.44.41 20.11.82 31.6.82 86.17 0 154.29-28.72 154.29-64.84 0-28.72-27.08-47.19-53.76-52.12zm-779.27 146.5c4.92 0 7.39 3.28 7.39 8.21 0 16.41-23.8 50.47-61.14 57.04.82-30.37 29.14-65.25 53.76-65.25zm144.85 71.81c-20.93 14.36-34.88 20.11-43.91 20.11s-12.72-5.74-12.72-13.95c0-25.44 36.11-77.56 80.84-77.56 7.8 0 14.36 3.69 16 9.85-18.47 14.77-32.01 38.57-40.22 61.55z"/><path d="m1473.73 181.92c-43.5 0-91.1 20.11-143.62 57.86l-16.01 11.49.16.19c-20.57 15.14-58.12 32.64-82.64 32.64-12.72 0-22.16-4.51-24.21-17.24 59.91-6.98 98.49-40.63 98.49-62.79 0-11.49-10.26-19.7-33.24-19.7-44.32 0-128.85 61.96-128.85 114.9 0 20.11 18.47 29.14 37.34 29.14 42.26 0 103-43.5 139.52-69.76l16-11.49-.15-.18c50.37-35.99 95.84-55.22 137.21-55.22 70.58 0 112.85 36.93 112.85 80.84 0 64.43-90.69 144.04-315.98 144.04s-509.25-40.22-748.08-40.22c-204.36 0-336.5 25.44-413.64 139.11l10.67 6.57c58.27-69.76 132.96-89.87 265.5-89.87 235.96 0 576.14 69.35 834.67 69.35s383.28-120.65 383.28-213.8c0-58.27-45.96-105.87-129.27-105.87zm-212.97 13.13c4.93 0 7.39 3.28 7.39 8.21 0 16.41-23.8 50.47-61.14 57.04.82-30.37 29.13-65.25 53.76-65.25z"/></g></svg>
