<svg width="24" height="24" fill="currentColor" class="c-media__svg" viewBox="0 0 24 24" xmlns="http://www.w3.org/2000/svg"><path d="m17.3 24h-13.3c-2.2 0-4-1.8-4-4v-13.3c0-2.2 1.8-4 4-4h5.3c.7 0 1.3.6 1.3 1.3s-.6 1.3-1.3 1.3h-5.3c-.7 0-1.3.6-1.3 1.3v13.3c0 .7.6 1.3 1.3 1.3h13.3c.7 0 1.3-.6 1.3-1.3v-5.3c0-.7.6-1.3 1.3-1.3s1.3.6 1.3 1.3v5.3c0 2.2-1.8 4-4 4zm-8-8c-.3 0-.7-.1-.9-.4-.5-.5-.5-1.4 0-1.9l11-11h-4.8c-.7 0-1.3-.6-1.3-1.3s.6-1.3 1.3-1.3h8c.2 0 .3 0 .5.1.2 0 .3.2.4.3s.2.3.3.4c0 .2.1.3.1.5v8c0 .7-.6 1.3-1.3 1.3s-1.3-.6-1.3-1.3v-4.8l-11.1 11.1c-.3.3-.6.4-.9.4z"/></svg>
