<svg width="72" height="72" fill="currentColor" class="c-media__svg" viewBox="0 0 72 72" xmlns="http://www.w3.org/2000/svg"><path d="m26.49 24.43h2.58l-3.99 17.25c-.12.35 0 .7.12 1.06l9.39 16.2c.59.94 2 .94 2.58 0l9.74-16.2c.23-.35.23-.7.12-1.06l-3.99-17.13h2.58c.82 0 1.53-.7 1.53-1.53v-5.87c0-.82-.7-1.53-1.53-1.53h-1.53v-11.85c0-.82-.7-1.53-1.53-1.53h-13.14c-.82 0-1.53.7-1.53 1.53v11.74h-1.53c-.82 0-1.53.7-1.53 1.53v5.87h.12c0 .82.7 1.53 1.53 1.53zm9.39 14.32c-1.06 0-1.06-1.76 0-1.76s1.06 1.76 0 1.76zm8.1 2.93-6.45 10.91v-11.27c3.64-1.64 2.35-7.28-1.53-7.28-4.11 0-5.16 5.87-1.41 7.39v11.5l-6.45-11.15 3.99-17.37h7.98l3.87 17.25zm-13.03-36.38h1.41v5.87c0 1.88 2.93 1.88 2.93 0v-5.87h5.87v10.21h-10.21zm-2.93 13.15h16.08v2.93h-16.08z"/><path d="m71.56 29.83-5.16-5.16c-.59-.59-1.53-.59-2.11 0l-5.16 5.16c-.59.59-.59 1.53 0 2.11l4.22 4.23-24.29 27.81h-5.99l-24.41-27.81 4.22-4.23c.59-.59.59-1.53 0-2.11l-5.16-5.16c-.59-.59-1.53-.59-2.11 0l-5.17 5.16c-.59.59-.59 1.53 0 2.11l28.64 31.92h-17.61c-1.64-4.58-8.57-3.29-8.57 1.53s6.92 5.99 8.57 1.53h48.94c1.64 4.58 8.57 3.29 8.57-1.53s-6.92-5.99-8.57-1.53h-17.6l28.75-31.92c.59-.59.59-1.53 0-2.11zm-68.07 1.17 3.17-3.17 3.17 3.17-3.17 3.17zm3.87 35.91c-1.88 0-1.88-2.93 0-2.93s1.88 2.93 0 2.93zm57.28-2.93c1.88 0 1.88 2.93 0 2.93s-1.88-2.93 0-2.93zm.7-29.81-3.17-3.17 3.17-3.17 3.17 3.17z"/></svg>
