<svg width="72" height="72" fill="currentColor" class="c-media__svg" viewBox="0 0 72 72" xmlns="http://www.w3.org/2000/svg"><path d="m70.44 0h-68.88c-.84 0-1.56.72-1.56 1.56v68.88c0 .84.72 1.56 1.56 1.56h68.88c.84 0 1.56-.72 1.56-1.56v-68.88c-.12-.84-.84-1.56-1.56-1.56zm-67.44 3h17.97v8.98h-17.97zm65.88 16.53h-55.34c-1.92 0-1.92 2.99 0 2.99h55.35v38.94h-44.93c-1.92 0-1.92 2.99 0 2.99h44.92v4.43h-65.88v-53.9h65.89v4.55zm0-13.54h-29.95c-1.92 0-1.92 2.99 0 2.99h29.95v2.99h-44.92v-8.97h44.92v3z"/><path d="m11.98 63.37c-.24 1.08-.24 2.52 1.32 2.52s1.56-1.8 1.8-2.88c3.24-12.34 10.18-23.6 22.16-28.75 6.35-2.64 12.1-2.99 14.85-2.87l-1.92 1.32c-1.56 1.08.12 3.59 1.68 2.52l4.43-3.11c.72-.48.84-1.44.36-2.04l-3.12-4.43c-1.08-1.56-3.59.12-2.52 1.68l.72 1.08c-10.9-.24-21.68 4.43-28.87 12.46-3.59 4.07-6.35 8.86-8.27 13.9-1.08 2.76-1.92 5.63-2.64 8.63z"/><path d="m32.95 49.48c-2.4 0-4.55 2.04-4.55 4.55s2.04 4.55 4.55 4.55 4.55-2.04 4.55-4.55-2.16-4.55-4.55-4.55zm0 5.99c-1.92 0-1.92-3 0-3s1.92 3 0 3z"/><path d="m53.91 43.49c0 2.4 2.04 4.55 4.55 4.55s4.55-2.04 4.55-4.55-2.16-4.55-4.55-4.55-4.55 2.04-4.55 4.55zm4.55-1.56c1.92 0 1.92 2.99 0 2.99s-2.04-2.99 0-2.99z"/><path d="m13.54 36.06c2.52 0 4.43-2.16 4.43-4.55s-2.04-4.55-4.55-4.55-4.43 2.04-4.43 4.55 2.04 4.55 4.55 4.55zm1.43-4.55c0 1.92-2.99 1.92-2.99 0s2.99-1.92 2.99 0z"/><path d="m7.49 5.99c-.83 0-1.5.67-1.5 1.5s.67 1.5 1.5 1.5c.83 0 1.5-.67 1.5-1.5s-.67-1.5-1.5-1.5z"/><path d="m12.04 5.99c-.83 0-1.5.67-1.5 1.5s.67 1.5 1.5 1.5c.83 0 1.5-.67 1.5-1.5s-.67-1.5-1.5-1.5z"/><path d="m16.47 5.99c-.83 0-1.5.67-1.5 1.5s.67 1.5 1.5 1.5c.83 0 1.5-.67 1.5-1.5s-.67-1.5-1.5-1.5z"/></svg>
