<svg width="72" height="72" fill="currentColor" class="c-media__svg" viewBox="0 0 72 72" xmlns="http://www.w3.org/2000/svg"><path d="m36 0c-20.28 0-36 14.85-36 34.92 0 10.49 4.3 19.57 11.31 25.83.59.52.94 1.26.97 2.05l.2 6.4c.06 2.04 2.17 3.37 4.04 2.55l7.14-3.15c.61-.27 1.29-.32 1.92-.14 3.29.9 6.78 1.38 10.42 1.38 20.28 0 36-14.86 36-34.92s-15.72-34.92-36-34.92zm21.61 26.87-10.57 16.78c-1.68 2.67-5.29 3.33-7.81 1.44l-8.41-6.31c-.77-.58-1.83-.58-2.6.01l-11.36 8.62c-1.51 1.15-3.49-.66-2.48-2.27l10.58-16.78c1.68-2.67 5.28-3.33 7.81-1.44l8.41 6.31c.77.58 1.83.58 2.6 0l11.36-8.62c1.52-1.15 3.49.66 2.48 2.27z" fill-rule="evenodd"/></svg>
