<svg width="72" height="72" fill="currentColor" class="c-media__svg" viewBox="0 0 72 72" xmlns="http://www.w3.org/2000/svg"><path d="m72 36.56c0-4.35-3.53-7.88-7.88-7.88-2.12 0-4.05.84-5.46 2.21-5.39-3.89-12.81-6.4-21.07-6.68l3.59-16.89 11.73 2.49c.14 2.98 2.58 5.36 5.6 5.36s5.63-2.52 5.63-5.63-2.52-5.63-5.63-5.63c-2.21 0-4.1 1.29-5.02 3.14l-13.09-2.78c-.36-.08-.75 0-1.06.2s-.53.52-.61.89l-4.01 18.84c-8.39.23-15.92 2.75-21.38 6.68-1.42-1.36-3.33-2.2-5.45-2.2-4.36-0-7.89 3.53-7.89 7.88 0 3.2 1.91 5.95 4.66 7.19-.12.78-.19 1.58-.19 2.38 0 12.12 14.11 21.95 31.52 21.95s31.52-9.83 31.52-21.95c0-.8-.07-1.59-.19-2.37 2.76-1.23 4.69-3.99 4.69-7.2zm-54.02 5.63c0-3.1 2.53-5.63 5.63-5.63s5.63 2.53 5.63 5.63-2.52 5.63-5.63 5.63-5.63-2.52-5.63-5.63zm31.38 14.87c-3.84 3.84-11.2 4.13-13.37 4.13s-9.53-.3-13.36-4.13c-.57-.57-.57-1.49 0-2.06s1.49-.57 2.06 0c2.42 2.42 7.6 3.28 11.3 3.28s8.88-.86 11.3-3.28c.57-.57 1.49-.57 2.06 0s.57 1.49 0 2.06zm-.99-9.24c-3.1 0-5.63-2.52-5.63-5.63s2.52-5.63 5.63-5.63 5.63 2.53 5.63 5.63-2.52 5.63-5.63 5.63z"/></svg>
