<svg width="24.77" height="32" fill="currentColor" class="c-media__svg" viewBox="0 0 24.77 32" xmlns="http://www.w3.org/2000/svg"><path d="m13.14 0c-8.74 0-13.14 6.26-13.14 11.48 0 3.16 1.2 5.97 3.76 7.02.42.17.8 0 .92-.46.08-.32.29-1.14.38-1.48.12-.46.08-.62-.26-1.02-.74-.87-1.21-2-1.21-3.6-.01-4.64 3.47-8.8 9.04-8.8 4.94 0 7.65 3.02 7.65 7.04 0 5.3-2.35 9.77-5.83 9.77-1.92 0-3.36-1.59-2.9-3.54.55-2.33 1.62-4.84 1.62-6.52 0-1.5-.81-2.76-2.48-2.76-1.97 0-3.54 2.03-3.54 4.76 0 1.73.59 2.91.59 2.91s-2.01 8.52-2.36 10.02c-.7 2.97-.11 6.62-.06 6.99.03.22.31.27.44.11.18-.24 2.52-3.13 3.32-6.01.23-.82 1.29-5.05 1.29-5.05.64 1.22 2.51 2.29 4.49 2.29 5.91 0 9.92-5.39 9.92-12.6-.01-5.47-4.63-10.55-11.64-10.55z"/></svg>
