<svg width="32" height="32" fill="currentColor" class="c-media__svg" enable-background="new 0 0 32 32" viewBox="0 0 32 32" xmlns="http://www.w3.org/2000/svg"><path d="m16 2.9c4.3 0 4.8 0 6.5.1 1.6.1 2.4.3 3 .5.7.3 1.3.6 1.8 1.2s.9 1.1 1.2 1.8c.2.6.5 1.4.5 3 .1 1.7.1 2.2.1 6.5s0 4.8-.1 6.5c-.1 1.6-.3 2.4-.5 3-.3.7-.6 1.3-1.2 1.8s-1.1.9-1.8 1.2c-.6.2-1.4.5-3 .5-1.7.1-2.2.1-6.5.1s-4.8 0-6.5-.1c-1.6-.1-2.4-.3-3-.5-.7-.3-1.3-.6-1.8-1.2s-.9-1.1-1.2-1.8c-.2-.6-.5-1.5-.5-3-.1-1.7-.1-2.2-.1-6.5s0-4.8.1-6.5c0-1.5.3-2.4.5-2.9.3-.7.6-1.3 1.2-1.8s1.1-.9 1.8-1.2c.6-.3 1.5-.6 3-.6 1.7-.1 2.2-.1 6.5-.1m0-2.9c-4.3 0-4.9 0-6.6.1s-2.9.3-3.9.7-1.9.9-2.8 1.8-1.5 1.9-1.9 2.9-.7 2.2-.7 3.9c-.1 1.7-.1 2.2-.1 6.6s0 4.9.1 6.6.3 2.9.7 3.9.9 1.9 1.8 2.8 1.8 1.4 2.8 1.8 2.2.7 3.9.7c1.8.2 2.4.2 6.7.2s4.9 0 6.6-.1 2.9-.3 3.9-.7 1.9-.9 2.8-1.8 1.4-1.8 1.8-2.8.7-2.2.7-3.9.2-2.4.2-6.7 0-4.9-.1-6.6-.3-2.9-.7-3.9-.9-1.9-1.8-2.8-1.8-1.4-2.9-1.8c-1-.4-2.2-.7-3.9-.7-1.7-.2-2.3-.2-6.6-.2zm0 7.8c-4.5 0-8.2 3.7-8.2 8.2s3.7 8.2 8.2 8.2 8.2-3.7 8.2-8.2-3.7-8.2-8.2-8.2zm0 13.5c-2.9 0-5.3-2.4-5.3-5.3s2.4-5.3 5.3-5.3 5.3 2.4 5.3 5.3-2.4 5.3-5.3 5.3zm10.4-13.8c0 1.1-.9 1.9-1.9 1.9s-1.9-.9-1.9-1.9.9-1.9 1.9-1.9 1.9.8 1.9 1.9z"/></svg>
