<svg width="32" height="23.6" fill="currentColor" class="c-media__svg" enable-background="new 0 0 32 23.6" viewBox="0 0 32 23.6" xmlns="http://www.w3.org/2000/svg"><path clip-rule="evenodd" d="m12.6 16.2v-9.5l8.6 4.7zm19.1-11.1s-.3-2.4-1.3-3.4c-1.2-1.3-2.5-1.3-3.2-1.3-4.5-.4-11.2-.4-11.2-.4s-6.7 0-11.1.3c-.7 0-2 0-3.2 1.3-1 1-1.3 3.4-1.3 3.4s-.4 2.7-.4 5.4v2.6c0 2.9.3 5.6.3 5.6s.3 2.4 1.3 3.4c1.2 1.3 2.9 1.3 3.5 1.5 2.6.1 10.9.1 10.9.1s6.7 0 11.3-.3c.7 0 2-.2 3.2-1.3 1-1 1.3-3.4 1.3-3.4s.2-2.7.2-5.4v-2.7c0-2.8-.3-5.4-.3-5.4z" fill-rule="evenodd"/></svg>
