<svg width="72" height="72" fill="currentColor" class="c-media__svg" viewBox="0 0 72 72" xmlns="http://www.w3.org/2000/svg"><path d="m36 0c-19.9 0-36 16.2-36 36s16.1 36 36 36 36-16.1 36-36-16.1-36-36-36zm-7.6 3.1c-2.2 1.9-4.2 4.5-5.8 7.8-1.9-.8-3.7-1.8-5.4-3 3.4-2.3 7.1-3.9 11.2-4.8zm-13.1 6.2c2 1.4 4.1 2.6 6.4 3.6-2.5 5.9-4 13.6-4.2 22h-15.2c.3-10.4 5.4-19.6 13-25.6zm-13 27.8h15.2c.1 8.4 1.7 16 4.2 22-2.2 1-4.3 2.2-6.3 3.6-7.7-6-12.7-15.2-13.1-25.6zm14.9 27c1.7-1.2 3.5-2.2 5.4-3 1.6 3.3 3.6 6 5.8 7.8-4.1-.9-7.8-2.6-11.2-4.8zm17.7 5.6c-4-.6-7.6-4-10.3-9.4 3.3-1.2 6.7-1.8 10.3-1.9v11.4zm0-13.6c-3.9.1-7.6.8-11.2 2.1-2.4-5.7-3.9-13.1-4.1-21.2h15.2v19zm0-21.2h-15.2c.1-8.1 1.6-15.5 4-21.1 3.6 1.3 7.3 2 11.2 2.1zm0-21.2c-3.5-.1-7-.8-10.3-1.9 2.7-5.4 6.3-8.9 10.3-9.4v11.4zm34.8 21.2h-15.2c-.1-8.4-1.6-16-4.2-22 2.2-1 4.3-2.2 6.4-3.6 7.7 6 12.7 15.2 13 25.6zm-14.9-26.9c-1.7 1.2-3.5 2.2-5.4 3-1.6-3.3-3.6-6-5.8-7.8 4.1.9 7.9 2.6 11.2 4.9zm-17.7-5.7c4 .6 7.6 4 10.3 9.4-3.3 1.2-6.7 1.8-10.3 1.9zm0 13.6c3.9-.1 7.6-.8 11.2-2.1 2.4 5.7 3.9 13.1 4 21.1h-15.2zm0 21.2h15.2c-.1 8.1-1.6 15.5-4 21.2-3.6-1.3-7.3-2-11.2-2.1v-19zm0 32.6v-11.4c3.5.1 7 .8 10.3 1.9-2.7 5.4-6.3 8.9-10.3 9.4zm6.5-.8c2.2-1.9 4.2-4.5 5.8-7.8 1.9.8 3.7 1.8 5.4 3-3.4 2.3-7.1 3.9-11.2 4.8zm13.1-6.2c-2-1.4-4.1-2.6-6.4-3.6 2.5-5.9 4.1-13.6 4.2-22h15.2c-.3 10.4-5.4 19.6-13 25.6z"/></svg>
