<svg width="72" height="72" fill="currentColor" class="c-media__svg" viewBox="0 0 72 72" xmlns="http://www.w3.org/2000/svg"><path d="m36 0c-19.88 0-36 16.12-36 36s16.12 36 36 36 36-16.12 36-36-16.12-36-36-36zm20.36 25.17v5.7c0 .43-.06.46-.5.46-1.39 0-2.76-.19-4.11-.5-2.32-.53-4.47-1.48-6.46-2.78-.1-.07-.21-.21-.32-.16-.14.06-.07.25-.07.37 0 5.35.02 10.69-.01 16.04-.02 3.74-1.21 7.08-3.66 9.93-2.6 3.02-5.9 4.78-9.86 5.27-3.05.37-5.95-.18-8.7-1.54-.45-.22-.87-.48-1.27-.78-.13-.11-.25-.22-.38-.33-.3-.13-.54-.35-.79-.54-2.46-1.95-4.19-4.4-5.14-7.39-.33-1.04-.54-2.11-.64-3.2-.07-.79-.08-1.58-.03-2.36.12-1.81.55-3.55 1.3-5.21.78-1.73 1.85-3.27 3.2-4.6 1.58-1.55 3.41-2.71 5.49-3.46 1.31-.47 2.65-.75 4.04-.86 1-.07 2-.05 3 .07.13.02.21.04.21.2-.01.55-.01 1.11-.01 1.66 0 0 .02.02.03.02.06.11.05.23.05.34v5.78.2c0 .19-.11.26-.29.21-.53-.15-1.07-.22-1.61-.25-.84-.05-1.68.08-2.47.37-2.65.98-4.26 2.87-4.59 5.67-.33 2.75.76 4.96 3.05 6.54.19.13.39.26.57.41.04.04.09.08.13.12.53.21 1.06.42 1.63.54 1.8.36 3.49.08 5.05-.88 1.8-1.11 2.86-2.74 3.24-4.81.07-.39.08-.79.08-1.19 0-10.73 0-21.47 0-32.2 0-.5-.07-.44.43-.44h7.42.18c.25 0 .26 0 .26.26 0 .57 0 1.15.1 1.71 0 0 .02.02.03.02.08.08.1.18.12.29.63 2.9 2.16 5.22 4.55 6.97.15.11.27.25.42.36.1.09.21.18.31.27.07 0 .13.04.19.07 1.21.69 2.5 1.15 3.88 1.37.54.09 1.08.15 1.62.14.23 0 .23 0 .23.22 0 .5 0 1.01-.01 1.51 0 0 .02.02.03.02.1.1.08.24.08.36z"/></svg>
