<svg class="c-media__svg" width="512" height="512" fill="currentColor" viewBox="0 0 512 512" xmlns="http://www.w3.org/2000/svg"><g><path d="m154.27 446.04c-14.34 6.17-28.02 13.68-41.19 22.51 25.52 17.18 54.37 29.85 85.22 37.03-16.84-14.18-31.69-34.52-44.03-59.54z"/><path d="m313.7 505.58c31.02-7.17 59.87-19.85 85.39-37.03-13.18-8.84-27.02-16.34-41.36-22.68-12.34 25.18-27.18 45.36-44.03 59.71z"/><path d="m364.74 430.7c16.84 7.34 33.19 16.68 48.36 27.52 58.2-45.2 96.4-115.08 98.9-193.79h-115.58c-.83 63.71-12.67 121.41-31.69 166.27z"/><path d="m115.58 264.42h-115.58c2.5 78.72 40.69 148.6 98.9 193.79 15.18-10.84 31.35-20.01 48.36-27.35-19.01-45.03-30.85-102.73-31.69-166.44z"/><path d="m198.46 6.42c-31.02 7.17-59.87 19.84-85.56 37.02 13.18 8.84 26.85 16.51 41.19 22.68 12.51-25.18 27.52-45.53 44.36-59.7z"/><path d="m357.9 66.13c14.34-6.17 28.02-13.68 41.19-22.51-25.68-17.35-54.54-30.02-85.56-37.19 16.84 14.18 31.85 34.52 44.36 59.7z"/><path d="m396.42 247.74h115.58c-2.5-78.72-40.69-148.6-98.9-193.79-15.18 10.84-31.35 20.01-48.36 27.35 19.01 44.86 30.85 102.57 31.69 166.44z"/><path d="m147.26 81.3c-17.01-7.34-33.19-16.51-48.36-27.35-58.21 45.2-96.4 115.08-98.9 193.79h115.58c.83-63.88 12.67-121.58 31.69-166.44z"/><path d="m247.66 511.42v-86.39c-26.85.83-53.03 5.84-77.88 14.68 20.35 41.03 47.7 67.71 77.88 71.71z"/><path d="m264.34 425.03v86.39c30.19-4 57.54-30.69 77.88-71.71-24.85-8.84-51.03-13.84-77.88-14.68z"/><path d="m379.75 264.42h-115.41v143.93c29.35.83 57.87 6.34 84.89 16.18 18.34-43.03 29.69-98.73 30.52-160.1z"/><path d="m162.77 424.69c27.02-10.01 55.54-15.51 84.89-16.34v-143.93h-115.41c.83 61.37 12.17 117.24 30.52 160.27z"/><path d="m169.78 72.46c24.85 8.84 51.03 13.84 77.88 14.68v-86.56c-30.35 4-57.54 30.69-77.88 71.88z"/><path d="m264.34.58v86.56c26.85-.83 53.03-5.84 77.88-14.68-20.34-41.19-47.53-67.87-77.88-71.88z"/><path d="m349.23 87.47c-27.02 10.01-55.54 15.51-84.89 16.34v143.93h115.41c-.83-61.37-12.17-117.24-30.52-160.27z"/><path d="m132.25 247.74h115.41v-143.92c-29.35-.83-57.87-6.34-84.89-16.34-18.34 43.03-29.69 98.9-30.52 160.27z"/></g></svg>
