<svg width="72" height="72" fill="currentColor" class="c-media__svg" viewBox="0 0 72 72" xmlns="http://www.w3.org/2000/svg"><path d="m36 0c-19.87 0-36 16.13-36 36s16.13 36 36 36 36-16.13 36-36-16.16-36-36-36zm23.78 16.59c4.3 5.23 6.87 11.91 6.95 19.13-1.02-.2-11.17-2.26-21.4-.98-.23-.51-.43-1.05-.66-1.6-.62-1.48-1.33-3.01-2.03-4.45 11.32-4.61 16.48-11.25 17.14-12.1zm-23.78-11.28c7.81 0 14.95 2.93 20.38 7.73-.55.78-5.19 6.99-16.13 11.09-5.04-9.25-10.62-16.83-11.48-18 2.3-.55 4.72-.82 7.22-.82zm-13.08 2.89c.82 1.09 6.29 8.71 11.4 17.77-14.37 3.83-27.06 3.75-28.43 3.75 1.99-9.53 8.43-17.45 17.02-21.51zm-17.69 27.84v-.94c1.33.04 16.24.23 31.59-4.37.9 1.72 1.72 3.47 2.5 5.23-.39.12-.82.23-1.21.35-15.85 5.12-24.29 19.09-24.99 20.26-4.88-5.43-7.89-12.65-7.89-20.54zm30.77 30.73c-7.11 0-13.67-2.42-18.86-6.48.55-1.13 6.79-13.16 24.13-19.21.08-.04.12-.04.2-.08 4.33 11.21 6.09 20.62 6.56 23.31-3.71 1.6-7.77 2.46-12.03 2.46zm17.14-5.27c-.31-1.87-1.95-10.85-5.97-21.9 9.64-1.52 18.08.98 19.13 1.33-1.33 8.55-6.25 15.93-13.16 20.58z" fill-rule="evenodd"/></svg>
