<svg class="c-media__svg" width="512" height="512" fill="currentColor" viewBox="0 0 512 512" xmlns="http://www.w3.org/2000/svg"><path d="m256 0c-141.16 0-256 114.85-256 256.01s114.84 255.99 256 255.99 256-114.84 256-255.99-114.84-256.01-256-256.01zm-54.25 22.06c-15.63 13.36-29.55 32.34-41.15 55.77-13.39-5.82-26.24-12.99-38.52-21.29 23.86-16.07 50.81-27.78 79.67-34.48zm-92.94 44.36c14.3 10.11 29.39 18.7 45.16 25.59-17.95 42.27-28.79 96.38-29.68 156.18h-108.24c2.39-73.84 38.14-139.26 92.76-181.77zm-92.76 197.41h108.24c.89 59.82 11.75 113.96 29.72 156.23-15.77 6.88-30.85 15.46-45.14 25.56-54.65-42.5-90.42-107.93-92.81-181.8zm106.08 191.67c12.27-8.29 25.11-15.45 38.49-21.26 11.6 23.4 25.51 42.36 41.12 55.7-28.84-6.69-55.77-18.39-79.62-34.44zm126.05 40.03c-28.25-3.92-53.76-28.63-72.93-66.99 23.24-8.3 47.74-12.92 72.93-13.73zm0-96.37c-27.47.82-54.17 5.93-79.45 15.12-17.2-40.49-27.9-92.89-28.8-150.44h108.25v135.33zm0-150.98h-108.25c.9-57.52 11.58-109.9 28.77-150.38 25.29 9.2 52 14.31 79.48 15.13zm0-150.9c-25.2-.8-49.72-5.43-72.96-13.75 19.18-38.4 44.69-63.14 72.96-67.06zm247.77 150.9h-108.24c-.89-59.79-11.73-113.9-29.68-156.16 15.78-6.89 30.87-15.47 45.18-25.59 54.61 42.51 90.35 107.92 92.74 181.75zm-106-191.63c-12.28 8.3-25.14 15.47-38.54 21.29-11.61-23.44-25.53-42.42-41.16-55.79 28.87 6.7 55.83 18.41 79.69 34.49zm-126.12-40.08c28.27 3.92 53.79 28.67 72.96 67.07-23.25 8.31-47.76 12.94-72.96 13.74zm0 96.46c27.47-.82 54.18-5.93 79.48-15.12 17.18 40.48 27.86 92.86 28.76 150.37h-108.24zm0 150.9h108.24c-.9 57.54-11.59 109.95-28.79 150.43-25.28-9.18-51.98-14.29-79.45-15.1v-135.32zm0 231.7v-80.72c25.19.8 49.69 5.42 72.93 13.72-19.17 38.36-44.68 63.08-72.93 67zm46.42-5.59c15.61-13.35 29.53-32.31 41.13-55.72 13.39 5.81 26.24 12.98 38.51 21.26-23.85 16.06-50.79 27.76-79.64 34.45zm92.91-44.33c-14.3-10.1-29.38-18.68-45.16-25.56 17.97-42.27 28.82-96.4 29.71-156.22h108.24c-2.4 73.85-38.15 139.28-92.79 181.78z" /></svg>
