<svg width="72" height="72" fill="currentColor" class="c-media__svg" viewBox="0 0 72 72" xmlns="http://www.w3.org/2000/svg"><path d="m36 6.52c9.67 0 10.8 0 14.63.22 3.6.22 5.4.67 6.75 1.13 1.58.67 2.92 1.35 4.05 2.7s2.02 2.47 2.7 4.05c.45 1.35 1.13 3.15 1.13 6.75.23 3.82.23 4.95.23 14.63s0 10.8-.23 14.63c-.23 3.6-.67 5.4-1.13 6.75-.67 1.58-1.35 2.92-2.7 4.05s-2.48 2.02-4.05 2.7c-1.35.45-3.15 1.13-6.75 1.13-3.83.23-4.95.23-14.63.23s-10.8 0-14.63-.23c-3.6-.23-5.4-.67-6.75-1.13-1.57-.67-2.93-1.35-4.05-2.7s-2.03-2.48-2.7-4.05c-.45-1.35-1.13-3.38-1.13-6.75-.22-3.83-.22-4.95-.22-14.63s0-10.8.22-14.63c0-3.38.67-5.4 1.13-6.53.67-1.57 1.35-2.92 2.7-4.05s2.47-2.03 4.05-2.7c1.35-.67 3.38-1.35 6.75-1.35 3.82-.22 4.95-.22 14.63-.22m0-6.52c-9.67 0-11.02 0-14.85.22s-6.53.68-8.78 1.58-4.28 2.03-6.3 4.05-3.38 4.28-4.28 6.53-1.56 4.94-1.56 8.77c-.23 3.82-.23 4.95-.23 14.85s0 11.02.23 14.85c.22 3.83.68 6.52 1.58 8.77s2.03 4.27 4.05 6.3 4.05 3.15 6.3 4.05 4.95 1.58 8.77 1.58c4.05.45 5.4.45 15.08.45s11.03 0 14.85-.23 6.52-.67 8.77-1.58 4.27-2.02 6.3-4.05 3.15-4.05 4.05-6.3 1.58-4.95 1.58-8.77.45-5.4.45-15.08 0-11.02-.23-14.85-.67-6.53-1.58-8.78-2.02-4.28-4.05-6.3-4.05-3.15-6.52-4.05c-2.25-.9-4.95-1.58-8.77-1.58-3.84-.43-5.18-.43-14.86-.43zm0 17.55c-10.13 0-18.45 8.32-18.45 18.45s8.32 18.45 18.45 18.45 18.45-8.33 18.45-18.45-8.33-18.45-18.45-18.45zm0 30.37c-6.52 0-11.93-5.4-11.93-11.93s5.4-11.93 11.93-11.93 11.92 5.4 11.92 11.93-5.4 11.93-11.92 11.93zm23.4-31.05c0 2.48-2.02 4.27-4.27 4.27s-4.27-2.02-4.27-4.28 2.02-4.28 4.27-4.28 4.27 1.8 4.27 4.28z"/></svg>
