<svg width="72" height="72" fill="currentColor" class="c-media__svg" viewBox="0 0 72 72" xmlns="http://www.w3.org/2000/svg"><path d="m39.76 30.4c1-1.12 1.82-2.27 2.84-3.23 3.15-2.98 6.88-4.48 11.23-4.44 2.39.02 4.75.19 7.06.86 5.27 1.53 8.34 5.17 9.8 10.33 1.1 3.87 1.3 7.85 1.31 11.84.01 8.41-.02 16.83 0 25.24 0 .79-.22.99-.99.99-4.32-.04-8.65-.04-12.97 0-.76 0-.92-.23-.92-.95.02-8.01.03-16.01 0-24.02 0-2.01-.13-4.01-.7-5.96-1.03-3.59-3.6-5.42-7.35-5.23-5.13.27-7.79 2.82-8.45 8.04-.16 1.25-.23 2.5-.23 3.76 0 7.79 0 15.57.02 23.36 0 .78-.19 1.01-.98 1-4.35-.04-8.71-.03-13.06 0-.7 0-.9-.18-.9-.89.02-15.42.02-30.83 0-46.25 0-.76.25-.94.97-.93 4.14.03 8.27.03 12.41 0 .76 0 .96.24.94.96-.04 1.84-.01 3.69-.01 5.53z"/><path d="m16.07 48.02c0 7.63-.01 15.25.02 22.88 0 .85-.21 1.1-1.08 1.09-4.32-.05-8.64-.04-12.97 0-.69 0-.9-.17-.9-.89.02-15.44.02-30.89 0-46.33 0-.64.15-.87.83-.86 4.38.03 8.77.04 13.15 0 .84 0 .96.32.95 1.04-.02 7.69-.01 15.38-.01 23.07z"/><path d="m17.26 8.61c0 4.79-3.87 8.69-8.64 8.69-4.7.01-8.6-3.9-8.62-8.61-.02-4.77 3.89-8.69 8.65-8.69 4.72 0 8.61 3.89 8.62 8.61z"/></svg>
