<svg width="72" height="72" fill="currentColor" class="c-media__svg" viewBox="0 0 72 72" xmlns="http://www.w3.org/2000/svg"><path d="m10.21 31.02c4.44 0 8.78.05 13.12-.03 1.37-.03 2.36-.97 2.57-2.3.24-1.53.38-3.14.19-4.67-.24-1.94-1.62-2.9-3.6-2.9-3.62 0-7.24 0-10.87 0-.45 0-.91.04-1.41.06zm.02 7v11.87h10.76c.93 0 1.88-.03 2.8-.16 2.07-.31 3.48-1.53 3.79-3.58.22-1.48.2-3.07-.1-4.53-.5-2.39-2.28-3.64-4.72-3.66-3.79-.03-7.57-.01-11.36 0-.38 0-.75.04-1.17.07zm-10.23-24.84h1.49 21.09c3.35 0 6.54.56 9.24 2.74 3.61 2.9 5.08 9.04 3.18 13.28-.99 2.21-2.74 3.51-5.15 4.26.31.11.46.18.61.21 3.32.58 5.22 2.72 6.16 5.78.94 3.08 1.03 6.23.17 9.33-1.52 5.45-5.59 7.86-10.82 8.79-.88.16-1.78.24-2.67.24-7.41.02-14.83.01-22.24 0-.33 0-.66-.04-1.06-.07v-44.56z"/><path d="m63.13 37.88c-.1-4.23-2.77-6.87-6.83-6.8-4.03.06-7.59 3.27-7.54 6.8zm8.87 6.02h-23.18c-.54 3.55 1.75 6.74 5.32 7.54 4.84 1.09 8.46-.57 9.66-4.56h7.66c.03 3.82-1.19 6.97-4.35 8.96-1.79 1.13-3.9 1.92-5.97 2.44-3.21.79-6.53.65-9.77-.01-6.89-1.4-11.32-6.41-12.13-13.54-.39-3.46.04-6.8 1.31-10.03 2.4-6.11 6.94-9.46 13.43-10 2.18-.18 4.46-.09 6.6.34 5.92 1.17 9.75 5.39 10.82 11.79.38 2.27.4 4.6.59 7.08z"/><path d="m46.73 15.91h18.23v5.32h-18.23z"/></svg>
