<svg width="72" height="72" fill="currentColor" class="c-media__svg" viewBox="0 0 72 72" xmlns="http://www.w3.org/2000/svg"><path d="m53.23 33.37c-.31-.15-.63-.29-.94-.43-.56-10.24-6.15-16.1-15.55-16.16-.04 0-.08 0-.13 0-5.62 0-10.29 2.4-13.17 6.76l5.17 3.54c2.15-3.26 5.52-3.96 8.01-3.96h.09c3.09.02 5.43.92 6.94 2.67 1.1 1.28 1.83 3.04 2.2 5.27-2.74-.47-5.71-.61-8.88-.43-8.93.51-14.68 5.72-14.29 12.96.2 3.67 2.03 6.83 5.15 8.89 2.64 1.74 6.05 2.6 9.58 2.4 4.67-.26 8.34-2.04 10.89-5.3 1.94-2.48 3.17-5.68 3.71-9.72 2.23 1.34 3.88 3.11 4.79 5.24 1.55 3.61 1.64 9.55-3.2 14.39-4.24 4.24-9.35 6.08-17.06 6.13-8.55-.06-15.02-2.81-19.23-8.15-3.94-5.01-5.97-12.24-6.05-21.49.08-9.26 2.11-16.49 6.05-21.49 4.21-5.35 10.67-8.09 19.23-8.15 8.62.06 15.2 2.82 19.56 8.19 2.14 2.63 3.76 5.95 4.82 9.81l6.06-1.62c-1.29-4.76-3.32-8.85-6.08-12.25-5.61-6.87-13.8-10.4-24.35-10.47h-.04c-10.53.07-18.62 3.62-24.06 10.53-4.84 6.15-7.34 14.71-7.42 25.44v.03s0 .03 0 .03c.08 10.73 2.58 19.29 7.42 25.45 5.44 6.91 13.53 10.46 24.06 10.53h.04c9.36-.06 15.96-2.52 21.39-7.95 7.11-7.1 6.9-16.01 4.55-21.48-1.68-3.92-4.89-7.1-9.27-9.21zm-16.16 15.2c-3.91.22-7.98-1.54-8.18-5.3-.15-2.79 1.99-5.9 8.42-6.28.74-.04 1.46-.06 2.17-.06 2.34 0 4.53.23 6.51.66-.74 9.26-5.09 10.77-8.93 10.98z"/></svg>
