<svg width="72" height="72" fill="currentColor" class="c-media__svg" viewBox="0 0 72 72" xmlns="http://www.w3.org/2000/svg"><circle cx="36" cy="36" r="36"/><g fill="#fff"><path d="m52.34 52.19c-.65 1.07-2.05 1.41-3.12.76-8.55-5.23-19.32-6.41-32-3.51-1.22.28-2.44-.49-2.72-1.71s.48-2.44 1.71-2.72c13.87-3.17 25.77-1.81 35.37 4.06 1.07.65 1.41 2.05.75 3.12z"/><path d="m56.79 42.28c-.82 1.34-2.57 1.76-3.91.94-9.79-6.02-24.71-7.76-36.29-4.24-1.5.45-3.09-.39-3.54-1.89s.39-3.08 1.89-3.54c13.23-4.01 29.67-2.07 40.91 4.84 1.33.82 1.75 2.57.93 3.9z"/><path d="m57.18 31.95c-11.74-6.97-31.11-7.61-42.31-4.21-1.8.55-3.7-.47-4.25-2.27s.47-3.7 2.27-4.25c12.87-3.91 34.25-3.15 47.77 4.87 1.62.96 2.15 3.05 1.19 4.67s-3.05 2.15-4.67 1.19z"/></g></svg>
