<svg width="72" height="72" fill="currentColor" class="c-media__svg" viewBox="0 0 72 72" xmlns="http://www.w3.org/2000/svg"><path d="m71.48 23.2s0 0 0 0c-.03-.05-.07-.1-.1-.15-.26-.37-.59-.68-.96-.91l-32.5-21.58c-1.09-.75-2.75-.75-3.85 0l-32.48 21.57c-.36.23-.69.53-.95.91-.04.05-.07.1-.1.15-.38.59-.54 1.24-.54 1.87v21.84c-.01.66.17 1.33.56 1.91.01.03 0 0 0 .01.01.01.02.03.03.04s0 .01 0 .01v.01c.27.38.59.69.96.92l32.49 21.57c.55.38 1.21.6 1.92.6s1.38-.22 1.92-.6l32.49-21.57c.37-.23.7-.54.96-.92s0 0 0 0v-.01c.01-.01.02-.03.03-.04.03-.02 0 0 0-.01 0 0 0 0 0-.01.39-.59.57-1.26.56-1.91v-21.84c.01-.64-.16-1.28-.52-1.86zm-32.07-13.47 23.02 15.28-10.23 6.79-12.79-8.61v-13.47zm-6.82 0v13.47l-12.79 8.61-10.23-6.79 23.02-15.28zm-25.78 21.64 6.87 4.56-6.87 4.62zm25.78 30.87-23.05-15.3 10.29-6.92 12.76 8.48v13.75zm3.41-19.68-10.05-6.67 10.05-6.77 10.05 6.77zm3.41 19.68v-13.75l12.76-8.48 10.29 6.92-23.05 15.3zm25.78-21.69-6.87-4.62 6.87-4.56z"/></svg>
