<svg width="72" height="72" fill="currentColor" class="c-media__svg" viewBox="0 0 72 72" xmlns="http://www.w3.org/2000/svg"><path d="m21.7 62.8c-2 .9-3.9 1.9-5.8 3.2 3.6 2.4 7.6 4.2 12 5.2-2.4-2-4.5-4.9-6.2-8.4z"/><path d="m44.1 71.2c4.4-1 8.4-2.8 12-5.2-1.9-1.2-3.8-2.3-5.8-3.2-1.7 3.5-3.8 6.4-6.2 8.4z"/><path d="m51.3 60.6c2.4 1 4.7 2.4 6.8 3.9 8.2-6.4 13.6-16.2 13.9-27.3h-16.3c-.1 9-1.8 17.1-4.5 23.4z"/><path d="m16.3 37.2h-16.3c.4 11.1 5.7 20.9 13.9 27.3 2.1-1.5 4.4-2.8 6.8-3.9-2.7-6.3-4.3-14.5-4.5-23.5z"/><path d="m27.9.8c-4.4 1-8.4 2.8-12 5.2 1.9 1.2 3.8 2.3 5.8 3.2 1.8-3.5 3.9-6.4 6.2-8.4z"/><path d="m50.3 9.2c2-.9 3.9-1.9 5.8-3.2-3.6-2.4-7.7-4.2-12-5.2 2.4 2 4.5 4.9 6.2 8.4z"/><path d="m55.7 34.8h16.3c-.4-11.1-5.7-20.9-13.9-27.3-2.1 1.5-4.4 2.8-6.8 3.9 2.7 6.3 4.3 14.5 4.5 23.5z"/><path d="m20.7 11.4c-2.4-1-4.7-2.3-6.8-3.9-8.2 6.4-13.5 16.2-13.9 27.3h16.3c.1-9 1.8-17.1 4.5-23.5z"/><path d="m34.8 72v-12.2c-3.8.1-7.5.8-11 2.1 2.9 5.8 6.7 9.5 11 10.1z"/><path d="m37.2 59.8v12.2c4.2-.6 8.1-4.3 11-10.1-3.5-1.2-7.2-2-11-2.1z"/><path d="m53.4 37.2h-16.2v20.3c4.1.1 8.1.9 11.9 2.3 2.6-6.1 4.2-13.9 4.3-22.6z"/><path d="m22.9 59.8c3.8-1.4 7.8-2.2 11.9-2.3v-20.3h-16.2c.1 8.6 1.7 16.5 4.3 22.6z"/><path d="m23.9 10.1c3.5 1.2 7.2 2 11 2.1v-12.2c-4.3.6-8.1 4.3-11 10.1z"/><path d="m37.2 0v12.2c3.8-.1 7.5-.8 11-2.1-2.9-5.8-6.8-9.5-11-10.1z"/><path d="m49.1 12.2c-3.8 1.4-7.8 2.2-11.9 2.3v20.3h16.2c-.1-8.6-1.7-16.5-4.3-22.6z"/><path d="m18.6 34.8h16.2v-20.2c-4.1-.1-8.1-.9-11.9-2.3-2.6 6.1-4.2 13.9-4.3 22.6z"/></svg>
