<svg width="72" height="72" fill="currentColor" class="c-media__svg" viewBox="0 0 72 72" xmlns="http://www.w3.org/2000/svg"><path d="m72 36.71c0 16.08-10.14 29.75-24.25 34.71v-2.98c-.01-2.36.12-4.74-.18-7.06-.49-3.75-2.17-6.92-5.39-9.06 2.56-.69 5.17-1.22 7.66-2.09 3.58-1.25 6.57-3.42 8.5-6.84 3.06-5.42 2.35-12.11-1.79-17.21-.34-.42-.42-.76-.27-1.29.64-2.29 1.03-4.62.81-7.01-.09-.99-.43-1.97-.73-2.94-.2-.64-.68-.83-1.37-.77-3.33.29-6.13 1.69-8.45 4.09-.44.45-.79.51-1.36.33-5.49-1.72-11-1.72-16.5-.02-.62.19-1.02.14-1.5-.36-1.94-2.04-4.3-3.34-7.06-3.86-2.26-.43-2.93.03-3.36 2.39-.39 2.18-.27 4.37.3 6.47.45 1.65.18 2.83-.84 4.26-4.42 6.19-3.65 14.29 1.67 19.24 2.6 2.41 5.72 3.79 9.09 4.66 1.54.4 3.12.66 4.58.96-.84.83-1.82 1.62-2.56 2.6-.77 1.01-1.29 2.2-1.95 3.3-.1.17-.36.35-.55.35-2.08.1-4.15.21-6.23.24-1.17.01-2.11-.59-2.85-1.51-.65-.81-1.29-1.64-1.99-2.4-.99-1.07-2.16-1.88-3.56-2.32-.54-.17-1.16-.14-1.36.44-.09.27.27.82.56 1.07 1.12.92 1.96 2.03 2.5 3.37.51 1.26.95 2.56 1.44 3.83.73 1.89 2.12 3.06 4 3.58.83.22 1.72.28 2.58.31 1.41.05 2.83.01 4.23.01.07 2.33.14 4.58.21 6.82-15.02-4.42-26.03-18.55-26.03-35.31 0-20.28 16.12-36.71 36-36.71s36 16.43 36 36.71z" fill="#231f20"/></svg>
