<svg width="72" height="72" fill="currentColor" class="c-media__svg" viewBox="0 0 72 72" xmlns="http://www.w3.org/2000/svg"><path d="m36.03 0c-19.9 0-36.03 16.11-36.03 35.97 0 15.25 9.49 28.27 22.89 33.51-.33-2.84-.59-7.22.12-10.33.65-2.81 4.21-17.88 4.21-17.88s-1.07-2.16-1.07-5.33c0-5 2.91-8.73 6.52-8.73 3.08 0 4.57 2.31 4.57 5.06 0 3.08-1.96 7.7-3 11.99-.86 3.58 1.81 6.51 5.34 6.51 6.41 0 11.33-6.75 11.33-16.46 0-8.62-6.2-14.62-15.06-14.62-10.26 0-16.28 7.67-16.28 15.6 0 3.08 1.19 6.39 2.67 8.2.3.36.33.68.24 1.04-.27 1.13-.89 3.58-1.01 4.09-.15.65-.53.8-1.22.47-4.51-2.1-7.32-8.64-7.32-13.94 0-11.34 8.24-21.76 23.81-21.76 12.48 0 22.21 8.88 22.21 20.78s-7.83 22.38-18.68 22.38c-3.65 0-7.09-1.89-8.24-4.14 0 0-1.81 6.87-2.25 8.56-.8 3.14-3 7.05-4.48 9.44 3.38 1.04 6.94 1.6 10.68 1.6 19.9 0 36.03-16.11 36.03-35.97.06-19.92-16.07-36.03-35.97-36.03z"/></svg>
