<?xml version="1.0" encoding="utf-8"?>
<!-- Generator: Adobe Illustrator 21.0.1, SVG Export Plug-In . SVG Version: 6.00 Build 0)  -->
<svg version="1.1" id="Layer_1" xmlns="http://www.w3.org/2000/svg" xmlns:xlink="http://www.w3.org/1999/xlink" x="0px" y="0px"
	 viewBox="0 0 600 600" style="enable-background:new 0 0 600 600;" xml:space="preserve">
<style type="text/css">
	.st0{fill:none;stroke:#BD922E;stroke-width:5.8065;stroke-miterlimit:10;}
	.st1{fill:#FFF8E3;}
</style>
<g>
	<g>
		<g>
			<path class="st0" d="M98.5,106.3v158.4c0,6.1-1.4,13-4.2,20.8c-2.8,7.8-7.7,14.7-14.6,20.8c6.5,6.1,11.2,13,14.3,20.8
				c3,7.8,4.5,14.7,4.5,20.8v165.5h35.7V560H61.5c-3.5,0-6.8-1.4-10.1-4.2c-3.2-2.8-4.9-7.9-4.9-15.3V364.6c0-9.5-2.5-18-7.5-25.3
				c-5-7.4-11.6-11.7-19.8-13v-41.5c4.3,0,8.2-1.3,11.7-3.9c3.5-2.6,6.4-5.8,8.8-9.7c2.4-3.9,4.1-7.9,5.2-12
				c1.1-4.1,1.6-7.9,1.6-11.4V79c0-8.2,1.9-13.5,5.8-15.9c3.9-2.4,6.9-3.6,9.1-3.6h72.7v46.7H98.5z"/>
			<path class="st0" d="M485.1,106.3V59.6h72.7c2.2,0,5.2,1.2,9.1,3.6c3.9,2.4,5.8,7.7,5.8,15.9v168.8c0,3.5,0.5,7.3,1.6,11.4
				c1.1,4.1,2.8,8.1,5.2,12c2.4,3.9,5.2,7.1,8.4,9.7c3.2,2.6,7.2,3.9,12,3.9v41.5c-8.7,1.3-15.4,5.6-20.1,13
				c-4.8,7.4-7.1,15.8-7.1,25.3v175.9c0,7.4-1.7,12.4-5.2,15.3c-3.5,2.8-6.7,4.2-9.7,4.2h-72.7v-46.7h35.7V347.8
				c0-6.1,1.4-13,4.2-20.8c2.8-7.8,7.7-14.7,14.6-20.8c-6.9-6.1-11.8-13-14.6-20.8c-2.8-7.8-4.2-14.7-4.2-20.8V106.3H485.1z"/>
		</g>
		<rect x="146" y="146" class="st0" width="327.5" height="46.7"/>
		<rect x="146" y="238.8" class="st0" width="282.9" height="46.7"/>
		<rect x="146" y="332.7" class="st0" width="141.5" height="46.7"/>
		<rect x="146" y="426.8" class="st0" width="282.9" height="46.7"/>
	</g>
</g>
<g>
	<g>
		<path class="st1" d="M79.2,86.9v158.4c0,6.1-1.4,13-4.2,20.8c-2.8,7.8-7.7,14.7-14.6,20.8c6.5,6.1,11.2,13,14.3,20.8
			c3,7.8,4.5,14.7,4.5,20.8v165.5h35.7v46.7H42.2c-3.5,0-6.8-1.4-10.1-4.2c-3.2-2.8-4.9-7.9-4.9-15.3V345.3c0-9.5-2.5-18-7.5-25.3
			c-5-7.4-11.6-11.7-19.8-13v-41.5c4.3,0,8.2-1.3,11.7-3.9c3.5-2.6,6.4-5.8,8.8-9.7c2.4-3.9,4.1-7.9,5.2-12
			c1.1-4.1,1.6-7.9,1.6-11.4V59.7c0-8.2,1.9-13.5,5.8-15.9c3.9-2.4,6.9-3.6,9.1-3.6h72.7v46.7H79.2z"/>
		<path class="st1" d="M465.7,86.9V40.2h72.7c2.2,0,5.2,1.2,9.1,3.6c3.9,2.4,5.8,7.7,5.8,15.9v168.8c0,3.5,0.5,7.3,1.6,11.4
			c1.1,4.1,2.8,8.1,5.2,12c2.4,3.9,5.2,7.1,8.4,9.7c3.2,2.6,7.2,3.9,12,3.9V307c-8.7,1.3-15.4,5.6-20.1,13
			c-4.8,7.4-7.1,15.8-7.1,25.3v175.9c0,7.4-1.7,12.4-5.2,15.3c-3.5,2.8-6.7,4.2-9.7,4.2h-72.7v-46.7h35.7V328.4
			c0-6.1,1.4-13,4.2-20.8c2.8-7.8,7.7-14.7,14.6-20.8c-6.9-6.1-11.8-13-14.6-20.8c-2.8-7.8-4.2-14.7-4.2-20.8V86.9H465.7z"/>
	</g>
	<rect x="126.6" y="126.7" class="st1" width="327.5" height="46.7"/>
	<rect x="126.6" y="219.4" class="st1" width="282.9" height="46.7"/>
	<rect x="126.6" y="313.4" class="st1" width="141.5" height="46.7"/>
	<rect x="126.6" y="407.5" class="st1" width="282.9" height="46.7"/>
</g>
</svg>
