<?xml version="1.0" encoding="utf-8"?>
<!-- Generator: Adobe Illustrator 21.0.1, SVG Export Plug-In . SVG Version: 6.00 Build 0)  -->
<svg version="1.1" id="Layer_1" xmlns="http://www.w3.org/2000/svg" xmlns:xlink="http://www.w3.org/1999/xlink" x="0px" y="0px"
	 viewBox="0 0 600 600" style="enable-background:new 0 0 600 600;" xml:space="preserve">
<style type="text/css">
	.st0{fill:none;stroke:#FFC30C;stroke-width:5;stroke-linejoin:round;stroke-miterlimit:10;}
	.st1{fill:#BD922E;}
</style>
<g>
	<g>
		<path class="st0" d="M321.2,135.1v197l0,0c20,4.8,34.8,22.7,34.8,44.2c0,25.1-20.3,45.4-45.4,45.4s-45.4-20.3-45.4-45.4
			c0-21.4,14.8-39.4,34.8-44.2l0,0v-197h-21.7L158.2,399l88.4,110.5h127.8L462.9,399L342.8,135.1H321.2z"/>
		<rect x="246.7" y="553.1" class="st0" width="127.8" height="43.6"/>
		<path class="st0" d="M555.5,22c-20.9,0-38.4,14.4-43.2,33.8H355.1V22h-89v33.8h0H108.8C104,36.4,86.5,22,65.7,22
			c-24.6,0-44.5,19.9-44.5,44.5S41.1,111,65.7,111c20.9,0,38.4-14.4,43.2-33.8h110.8c-17.7,10.1-39.2,24.1-60.8,42.4
			c-67.5,57.2-103.5,129.6-104,209.4H21.1c-1,0-1.8,0.8-1.8,1.8v89c0,1,0.8,1.8,1.8,1.8h89c1,0,1.8-0.8,1.8-1.8v-89
			c0-1-0.8-1.8-1.8-1.8H76.4c0.5-74.1,32.8-138.9,95.9-192.6c40.4-34.4,81.3-53.1,93.8-58.3V111h89V77.3h157.2
			c4.8,19.4,22.3,33.8,43.2,33.8c24.6,0,44.5-19.9,44.5-44.5S580.1,22,555.5,22z M86.1,354.9v40.9H45.2v-40.9H86.1z"/>
	</g>
</g>
<g>
	<g>
		<path class="st1" d="M301.8,115.7v197l0,0c20,4.8,34.8,22.7,34.8,44.2c0,25.1-20.3,45.4-45.4,45.4s-45.4-20.3-45.4-45.4
			c0-21.4,14.8-39.4,34.8-44.2l0,0v-197H259L138.9,379.6l88.4,110.5h127.8l88.4-110.5L323.5,115.7H301.8z"/>
		<rect x="227.3" y="533.7" class="st1" width="127.8" height="43.6"/>
		<path class="st1" d="M536.1,2.7c-20.9,0-38.4,14.4-43.2,33.8H335.7V2.7h-89v33.8h0H89.5C84.7,17,67.2,2.7,46.3,2.7
			C21.7,2.7,1.8,22.6,1.8,47.2s19.9,44.5,44.5,44.5c20.9,0,38.4-14.4,43.2-33.8h110.8C182.6,68,161.1,82,139.6,100.3
			C72,157.5,36.1,229.9,35.6,309.7H1.8c-1,0-1.8,0.8-1.8,1.8v89c0,1,0.8,1.8,1.8,1.8h89c1,0,1.8-0.8,1.8-1.8v-89
			c0-1-0.8-1.8-1.8-1.8H57.1c0.5-74.1,32.8-138.9,95.9-192.6c40.4-34.4,81.3-53.1,93.8-58.3v32.9h89V57.9H493
			c4.8,19.4,22.3,33.8,43.2,33.8c24.6,0,44.5-19.9,44.5-44.5S560.7,2.7,536.1,2.7z M66.8,335.6v40.9H25.8v-40.9H66.8z"/>
	</g>
</g>
</svg>
